<svg width="111" height="111" viewBox="0 0 111 111" fill="none" xmlns="http://www.w3.org/2000/svg">
<path d="M88.0996 39.6312V105.526H22.2017V39.6312H88.0996ZM75.7662 79.7951V66.4672H61.6794V52.3804H48.3481V66.4672H34.2612V79.7951H48.3481V93.8854H61.6794V79.7951H75.7662Z" fill="#FF5959"/>
<path d="M88.0996 39.5862H22.2017L36.8291 26.345H73.4722L88.0996 39.5862Z" fill="#FFB578"/>
<path d="M75.7662 66.4673V79.7952H61.6794V93.8855H48.3481V79.7952H34.2612V66.4673H48.3481V52.3805H61.6794V66.4673H75.7662Z" fill="white"/>
<path d="M36.8291 6.32544H73.4722V19.5667H36.8291V6.32544Z" fill="#FFB578"/>
<path d="M88.0999 107.952H22.2017C21.8831 107.952 21.5677 107.889 21.2733 107.767C20.979 107.645 20.7116 107.467 20.4864 107.241C20.2611 107.016 20.0824 106.749 19.9605 106.454C19.8386 106.16 19.7759 105.845 19.7759 105.526V39.6316C19.7759 38.9882 20.0315 38.3712 20.4864 37.9163C20.9413 37.4614 21.5583 37.2058 22.2017 37.2058H88.0996C88.7429 37.2058 89.3599 37.4614 89.8148 37.9163C90.2698 38.3712 90.5253 38.9882 90.5253 39.6316V105.526C90.5254 105.845 90.4628 106.16 90.3409 106.454C90.2191 106.749 90.0404 107.016 89.8152 107.241C89.5899 107.467 89.3225 107.645 89.0282 107.767C88.7339 107.889 88.4185 107.952 88.0999 107.952ZM24.6274 103.1H85.6738V42.0574H24.6274V103.1Z" fill="#148D3B"/>
<path d="M88.1002 42.012H22.2019C21.7118 42.0121 21.2332 41.8637 20.8291 41.5864C20.425 41.3091 20.1144 40.9159 19.9382 40.4586C19.7619 40.0013 19.7283 39.5014 19.8418 39.0246C19.9553 38.5478 20.2105 38.1166 20.5739 37.7877L35.2013 24.5465C35.6473 24.1425 36.2276 23.9188 36.8293 23.9189H73.4724C74.0741 23.9189 74.6544 24.1426 75.1005 24.5465L89.7279 37.7877C90.0912 38.1166 90.3464 38.5478 90.4599 39.0245C90.5734 39.5012 90.5399 40.0012 90.3637 40.4585C90.1875 40.9157 89.8769 41.3089 89.4728 41.5863C89.0688 41.8636 88.5902 42.012 88.1002 42.012ZM28.4965 37.1605H81.8056L72.5378 28.7708H37.7643L28.4965 37.1605ZM73.4728 21.9925H36.8297C36.5111 21.9925 36.1957 21.9297 35.9014 21.8078C35.6071 21.6859 35.3397 21.5072 35.1144 21.282C34.8892 21.0567 34.7105 20.7893 34.5886 20.495C34.4667 20.2007 34.4039 19.8853 34.4039 19.5667V6.32543C34.4039 6.00688 34.4667 5.69144 34.5886 5.39713C34.7105 5.10282 34.8892 4.83541 35.1144 4.61015C35.3397 4.3849 35.6071 4.20622 35.9014 4.08431C36.1957 3.9624 36.5111 3.89966 36.8297 3.89966H73.4728C73.7913 3.89966 74.1068 3.9624 74.4011 4.08431C74.6954 4.20622 74.9628 4.3849 75.188 4.61015C75.4133 4.83541 75.592 5.10282 75.7139 5.39713C75.8358 5.69144 75.8985 6.00688 75.8985 6.32543V19.5667C75.8985 19.8853 75.8358 20.2007 75.7139 20.495C75.592 20.7893 75.4133 21.0567 75.188 21.282C74.9628 21.5072 74.6954 21.6859 74.4011 21.8078C74.1068 21.9297 73.7913 21.9925 73.4728 21.9925ZM39.2551 17.1409H71.0466V8.75121H39.2551V17.1409ZM61.6797 96.3116H48.3483C47.705 96.3116 47.088 96.0561 46.633 95.6011C46.1781 95.1462 45.9225 94.5292 45.9225 93.8859V82.2214H34.2615C33.9429 82.2214 33.6275 82.1586 33.3332 82.0367C33.0389 81.9148 32.7715 81.7361 32.5462 81.5108C32.321 81.2856 32.1423 81.0182 32.0204 80.7239C31.8985 80.4296 31.8357 80.1141 31.8357 79.7956V66.4677C31.8357 66.1491 31.8985 65.8337 32.0204 65.5394C32.1423 65.2451 32.321 64.9776 32.5462 64.7524C32.7715 64.5271 33.0389 64.3485 33.3332 64.2265C33.6275 64.1046 33.9429 64.0419 34.2615 64.0419H45.9225V52.3808C45.9225 51.7375 46.1781 51.1205 46.633 50.6656C47.088 50.2106 47.705 49.9551 48.3483 49.9551H61.6797C61.9982 49.9551 62.3137 50.0178 62.608 50.1397C62.9023 50.2616 63.1697 50.4403 63.395 50.6656C63.6202 50.8908 63.7989 51.1582 63.9208 51.4525C64.0427 51.7468 64.1055 52.0623 64.1055 52.3808V64.0419H75.7665C76.0851 64.0419 76.4005 64.1046 76.6948 64.2265C76.9891 64.3485 77.2565 64.5271 77.4818 64.7524C77.707 64.9776 77.8857 65.2451 78.0076 65.5394C78.1295 65.8337 78.1923 66.1491 78.1923 66.4677V79.7956C78.1923 80.1141 78.1295 80.4296 78.0076 80.7239C77.8857 81.0182 77.707 81.2856 77.4818 81.5108C77.2565 81.7361 76.9891 81.9148 76.6948 82.0367C76.4005 82.1586 76.0851 82.2214 75.7665 82.2214H64.1055V93.8859C64.1055 94.2044 64.0427 94.5199 63.9208 94.8142C63.7989 95.1085 63.6202 95.3759 63.395 95.6011C63.1697 95.8264 62.9023 96.0051 62.608 96.127C62.3137 96.2489 61.9982 96.3116 61.6797 96.3116ZM50.7744 91.4601H59.2543V79.7956C59.2543 79.1522 59.5098 78.5352 59.9647 78.0803C60.4197 77.6254 61.0367 77.3698 61.68 77.3698H73.3411V68.8934H61.68C61.0367 68.8934 60.4197 68.6379 59.9647 68.183C59.5098 67.728 59.2543 67.111 59.2543 66.4677V54.8066H50.7744V66.4677C50.7744 67.111 50.5189 67.728 50.0639 68.183C49.609 68.6379 48.992 68.8934 48.3487 68.8934H36.6876V77.3698H48.3487C48.992 77.3698 49.609 77.6254 50.0639 78.0803C50.5189 78.5352 50.7744 79.1522 50.7744 79.7956V91.4601Z" fill="#148D3B"/>
</svg>
