<svg width="99" height="99" viewBox="0 0 99 99" fill="none" xmlns="http://www.w3.org/2000/svg">
<g clip-path="url(#clip0_139_952)">
<path d="M49.5 0C22.1814 0 0 22.1816 0 49.5C0 76.8188 22.1814 99 49.5 99C76.8186 99 99 76.8188 99 49.5C99 22.1816 76.8186 0 49.5 0Z" fill="#5A3392"/>
<path d="M49.4998 3.3C75.035 3.3 95.6998 23.9648 95.6998 49.5C95.6998 75.0352 75.035 95.7 49.4998 95.7C23.9646 95.7 3.2998 75.0352 3.2998 49.5C3.2998 23.9648 23.9646 3.3 49.4998 3.3Z" fill="#EE746C"/>
<path d="M5.7334 49.5029C5.7336 73.6744 25.3284 93.2689 49.4999 93.2689C73.6713 93.2689 93.2661 73.6744 93.2663 49.5029C93.2663 25.3314 73.6715 5.73643 49.4999 5.73643C25.3284 5.73622 5.7334 25.3312 5.7334 49.5029Z" fill="#FB9761"/>
<path d="M49.5 8.25C26.7378 8.25 8.25 26.738 8.25 49.5C8.25 72.2624 26.7378 90.75 49.5 90.75C72.2622 90.75 90.75 72.2624 90.75 49.5C90.75 26.738 72.2622 8.25 49.5 8.25Z" fill="#5A3392"/>
<path d="M49.4998 11.55C70.4785 11.55 87.4498 28.5213 87.4498 49.5C87.4498 70.4787 70.4785 87.45 49.4998 87.45C28.5211 87.45 11.5498 70.4787 11.5498 49.5C11.5498 28.5213 28.5211 11.55 49.4998 11.55Z" fill="#EE746C"/>
<path d="M14.2314 49.5029C14.2317 68.9809 30.0219 84.7712 49.5002 84.7712C68.9784 84.7712 84.7687 68.9809 84.7689 49.5029C84.7689 30.0244 68.9787 14.2341 49.5002 14.2341C30.0217 14.2341 14.2314 30.0242 14.2314 49.5029Z" fill="#FB9761"/>
<path d="M49.5 16.5C31.2941 16.5 16.5 31.2943 16.5 49.5C16.5 67.7059 31.2941 82.5 49.5 82.5C67.7059 82.5 82.5 67.7059 82.5 49.5C82.5 31.2943 67.7059 16.5 49.5 16.5Z" fill="#5A3392"/>
<path d="M49.4998 19.8C65.9223 19.8 79.1998 33.0778 79.1998 49.5C79.1998 65.9222 65.9223 79.2 49.4998 79.2C33.0774 79.2 19.7998 65.9222 19.7998 49.5C19.7998 33.0778 33.0774 19.8 49.4998 19.8Z" fill="#EE746C"/>
<path d="M21.5044 49.5029C21.5044 64.9644 34.0384 77.4984 49.5002 77.4984C64.9619 77.4984 77.4957 64.9644 77.4959 49.5029C77.4961 34.0414 64.9621 21.5073 49.5006 21.5069H49.5002C34.0386 21.5069 21.5044 34.0409 21.5044 49.5025V49.5029Z" fill="#FB9761"/>
<path d="M49.5 24.75C35.8506 24.75 24.75 35.8504 24.75 49.5C24.75 63.1496 35.8506 74.25 49.5 74.25C63.1494 74.25 74.25 63.1496 74.25 49.5C74.25 35.8504 63.1494 24.75 49.5 24.75Z" fill="#5A3392"/>
<path d="M49.4998 28.05C61.3658 28.05 70.9498 37.6342 70.9498 49.5C70.9498 61.3662 61.3658 70.95 49.4998 70.95C37.6338 70.95 28.0498 61.3662 28.0498 49.5C28.0498 37.6342 37.6338 28.05 49.4998 28.05Z" fill="#EE746C"/>
<path d="M30.061 49.5029C30.061 60.2388 38.7642 68.942 49.5001 68.942C60.236 68.942 68.9392 60.2388 68.9392 49.5029C68.9394 38.767 60.2364 30.0638 49.5005 30.0634H49.5001C38.7642 30.0634 30.061 38.7665 30.061 49.5025V49.5029Z" fill="#FB9761"/>
<path d="M49.5 33C40.4068 33 33 40.4068 33 49.5C33 58.5931 40.4068 66 49.5 66C58.5931 66 66 58.5931 66 49.5C66 40.4068 58.5931 33 49.5 33Z" fill="#5A3392"/>
<path d="M49.4998 36.3C56.8095 36.3 62.6998 42.1907 62.6998 49.5C62.6998 56.8097 56.8095 62.7 49.4998 62.7C42.1901 62.7 36.2998 56.8097 36.2998 49.5C36.2998 42.1907 42.1901 36.3 49.4998 36.3Z" fill="#EE746C"/>
<path d="M65.0335 49.5L62.7002 51.8331L70.2671 59.3996L72.6002 57.0665L65.0333 49.4996L65.0335 49.5Z" fill="#5A3392"/>
<path d="M66.6834 64.35L64.3501 66.6835L70.267 72.6L72.6001 70.2667L66.6834 64.35Z" fill="#5A3392"/>
<path d="M63.3831 77.55L61.0498 79.8835L66.9667 85.8L69.2998 83.4667L63.3831 77.55Z" fill="#5A3392"/>
<path d="M60.0833 87.45L57.75 89.7835L63.6669 95.7L66 93.3667L60.0833 87.45Z" fill="#5A3392"/>
<path d="M38.8794 49.5029C38.8796 55.3684 43.6345 60.1231 49.5 60.1231C55.3656 60.1231 60.1205 55.3684 60.1207 49.5029C60.1207 43.6374 55.3658 38.8823 49.5 38.8823C43.6345 38.8823 38.8794 43.6372 38.8794 49.5029Z" fill="#FCF2EC"/>
</g>
<defs>
<clipPath id="clip0_139_952">
<rect width="99" height="99" fill="white"/>
</clipPath>
</defs>
</svg>
