<svg width="275" height="275" viewBox="0 0 275 275" fill="none" xmlns="http://www.w3.org/2000/svg">
<g clip-path="url(#clip0_139_581)">
<path d="M109.237 158.127C109.237 158.127 106.888 158.458 105.246 160.123C103.586 161.77 103.238 164.105 103.238 164.105C103.238 164.105 105.586 163.773 107.229 162.109C108.887 160.471 109.237 158.127 109.237 158.127Z" fill="#D5B84E"/>
<path d="M103.245 167.102C103.245 167.102 103.584 169.437 105.244 171.093C106.895 172.74 109.235 173.08 109.235 173.08C109.235 173.08 108.887 170.745 107.227 169.089C105.585 167.432 103.245 167.102 103.245 167.102Z" fill="#D5B84E"/>
<path d="M103.864 165.603C103.864 165.603 105.754 167.015 108.103 167.015C110.438 167.015 112.338 165.603 112.338 165.603C112.338 165.603 110.438 164.192 108.103 164.192C105.754 164.201 103.864 165.603 103.864 165.603Z" fill="#D5B84E"/>
<path d="M101.756 145.874C90.8804 145.874 82.0273 154.729 82.0273 165.603C82.0273 176.479 90.8804 185.332 101.756 185.332C112.635 185.332 121.498 176.479 121.498 165.603C121.497 154.729 112.635 145.874 101.756 145.874ZM101.756 183.93C91.6308 183.93 83.4397 175.73 83.4397 165.603C83.4397 155.495 91.6308 147.285 101.756 147.285C111.877 147.285 120.077 155.477 120.077 165.603C120.077 175.737 111.877 183.93 101.756 183.93Z" fill="#D5B84E"/>
<path d="M94.2786 158.127C94.2786 158.127 94.6265 160.462 96.2777 162.109C97.9289 163.773 100.255 164.105 100.255 164.105C100.255 164.105 99.9162 161.77 98.268 160.123C96.6182 158.475 94.2786 158.127 94.2786 158.127Z" fill="#D5B84E"/>
<path d="M94.2786 173.063C94.2786 173.063 96.6182 172.74 98.2694 171.093C99.9162 169.437 100.257 167.102 100.257 167.102C100.257 167.102 97.9215 167.434 96.2703 169.098C94.6191 170.744 94.2786 173.063 94.2786 173.063Z" fill="#D5B84E"/>
<path d="M99.6332 165.603C99.6332 165.603 97.752 164.192 95.4108 164.192C93.0667 164.192 91.1841 165.603 91.1841 165.603C91.1841 165.603 93.0667 167.015 95.4108 167.015C97.752 167.015 99.6332 165.603 99.6332 165.603Z" fill="#D5B84E"/>
<path d="M100.348 171.948C100.348 174.274 101.756 176.182 101.756 176.182C101.756 176.182 103.168 174.283 103.168 171.948C103.168 169.613 101.756 167.712 101.756 167.712C101.756 167.712 100.348 169.613 100.348 171.948Z" fill="#D5B84E"/>
<path d="M135.147 224.493C133.326 224.493 128.293 221.818 123.117 221.818C114.006 221.818 103.602 224.502 103.602 224.493C103.602 224.493 111.392 229.146 122.921 229.678C126.598 229.843 130.916 228.711 135.138 228.711C140.261 228.711 145.107 229.53 149.387 229.287C159.661 228.728 166.676 224.494 166.676 224.494C166.676 224.494 158.049 222.202 149.953 222.202C143.431 222.202 137.395 224.493 135.147 224.493Z" fill="#D5B84E"/>
<path d="M100.348 159.259C100.348 161.585 101.756 163.484 101.756 163.484C101.756 163.484 103.168 161.585 103.168 159.259C103.168 156.924 101.756 155.023 101.756 155.023C101.756 155.023 100.348 156.924 100.348 159.259Z" fill="#D5B84E"/>
<path d="M161.081 158.127C161.081 158.127 161.413 160.462 163.068 162.109C164.724 163.773 167.05 164.105 167.05 164.105C167.05 164.105 166.711 161.77 165.054 160.123C163.407 158.475 161.081 158.127 161.081 158.127Z" fill="#D5B84E"/>
<path d="M170.039 167.102C170.039 167.102 170.378 169.437 172.026 171.093C173.682 172.74 176.017 173.08 176.017 173.08C176.017 173.08 175.669 170.745 174.013 169.089C172.374 167.432 170.039 167.102 170.039 167.102Z" fill="#D5B84E"/>
<path d="M167.129 171.948C167.129 174.274 168.54 176.182 168.54 176.182C168.54 176.182 169.952 174.274 169.952 171.948C169.952 169.613 168.54 167.712 168.54 167.712C168.54 167.712 167.129 169.613 167.129 171.948Z" fill="#D5B84E"/>
<path d="M176.017 158.127C176.017 158.127 173.682 158.458 172.026 160.123C170.379 161.77 170.03 164.105 170.03 164.105C170.03 164.105 172.374 163.773 174.012 162.109C175.668 160.471 176.017 158.127 176.017 158.127Z" fill="#D5B84E"/>
<path d="M170.649 165.603C170.649 165.603 172.55 167.015 174.894 167.015C177.238 167.015 179.137 165.603 179.137 165.603C179.137 165.603 177.238 164.192 174.894 164.192C172.55 164.201 170.649 165.603 170.649 165.603Z" fill="#D5B84E"/>
<path d="M167.129 159.259C167.129 161.585 168.54 163.484 168.54 163.484C168.54 163.484 169.952 161.585 169.952 159.259C169.952 156.924 168.54 155.023 168.54 155.023C168.54 155.023 167.129 156.924 167.129 159.259Z" fill="#D5B84E"/>
<path d="M161.063 173.063C161.063 173.063 163.408 172.74 165.054 171.093C166.71 169.437 167.051 167.102 167.051 167.102C167.051 167.102 164.706 167.434 163.051 169.098C161.411 170.744 161.063 173.063 161.063 173.063Z" fill="#D5B84E"/>
<path d="M166.431 165.603C166.431 165.603 164.541 164.192 162.197 164.192C159.862 164.192 157.981 165.603 157.981 165.603C157.981 165.603 159.862 167.015 162.197 167.015C164.54 167.015 166.431 165.603 166.431 165.603Z" fill="#D5B84E"/>
<path d="M248.693 119.788C248.798 117.814 249.007 115.871 249.007 113.863C249.006 51.0778 197.925 0 135.147 0C72.3708 0 21.2886 51.0867 21.2886 113.863C21.2886 147.443 35.9768 177.586 59.1819 198.438C74.022 242.765 115.819 275 135.147 275C154.475 275 196.268 242.766 211.117 198.438C220.301 190.176 228.093 180.399 234.227 169.576C235.638 168.513 236.841 167.303 237.643 165.881L240.326 161.211L238.941 160.496L238.958 160.453L242.035 158.675C248.709 154.833 252.666 144.706 253.52 136.916C254.322 129.583 252.588 123.544 248.693 119.788ZM237.975 110.596L238.027 111.193L237.626 110.571L237.975 110.596ZM135.147 10.8448C184.182 10.8448 225.217 45.2957 235.542 91.249C230.533 83.7891 222.289 78.1692 214.332 78.1692L212.126 78.4183C170.284 39.4399 109.092 31.066 63.7964 39.7451C82.3222 21.8901 107.45 10.8448 135.147 10.8448ZM193.62 77.0988C188.077 78.2045 182.953 81.0248 179.005 85.7823C178.091 86.8718 177.446 88.153 176.679 89.3604C164.524 82.9724 150.345 79.813 135.149 79.813C120.87 79.813 107.451 82.5492 95.7956 88.1839C96.5844 87.3952 97.3023 86.5578 98.1176 85.7912C116.73 68.2679 140.639 59.3883 165.491 60.8258C175.362 65.0687 184.802 70.5413 193.62 77.0988ZM53.8111 166.562C53.8111 170.344 54.0559 174.074 54.4908 177.751C40.5353 160.174 32.1304 137.997 32.1304 113.864C32.1304 91.4377 39.4104 70.7373 51.6189 53.8111C76.0315 46.3513 108.082 44.6913 139.287 52.16C121.38 56.0329 104.666 64.7223 90.6843 77.8935C77.1121 90.6725 67.2698 106.654 62.4946 122.51C56.9823 134.528 53.8111 149.1 53.8111 166.562ZM79.1997 165.603C79.1997 153.16 89.3073 143.051 101.747 143.051C114.187 143.051 124.299 153.158 124.299 165.603C124.299 178.038 114.178 188.146 101.747 188.146C89.3073 188.146 79.1997 178.038 79.1997 165.603ZM135.147 240.885C115.454 240.885 103.611 224.494 103.611 224.494C103.611 224.494 121.082 212.119 125.235 212.417C129.383 212.713 135.147 217.114 135.147 217.114C135.147 217.114 142.393 212.417 147.434 212.417C152.47 212.417 166.683 224.494 166.683 224.494C166.683 224.494 154.84 240.885 135.147 240.885ZM168.539 188.146C156.097 188.146 145.987 178.038 145.987 165.603C145.987 153.16 156.113 143.051 168.539 143.051C170.03 143.051 171.485 143.207 172.88 143.487L173.559 145.16L174.779 146.972C172.809 146.31 170.735 145.874 168.539 145.874C157.665 145.874 148.811 154.728 148.811 165.603C148.811 176.478 157.665 185.331 168.539 185.331C179.415 185.331 188.277 176.478 188.277 165.603C188.277 162.317 187.397 159.277 185.968 156.54C186.815 156.854 187.643 157.239 188.497 157.413L189.56 157.622C190.511 160.107 191.094 162.781 191.094 165.604C191.093 178.038 180.984 188.146 168.539 188.146ZM176.086 148.94C178.351 151.913 181.053 154.283 183.98 155.79C185.784 158.631 186.865 161.985 186.865 165.601C186.865 175.727 178.665 183.928 168.538 183.928C158.411 183.928 150.222 175.728 150.222 165.601C150.222 155.494 158.413 147.283 168.538 147.283C171.242 147.285 173.778 147.895 176.086 148.94ZM215.806 177.768C215.963 176.487 215.946 175.171 216.032 173.872C216.852 173.925 217.67 173.968 218.456 173.968C217.547 175.224 216.763 176.548 215.806 177.768ZM239.457 154.23C229.697 135.33 215.909 131.787 215.909 131.787C215.909 131.787 221.224 157.229 233.182 163.337C228.737 171.091 206.047 170.813 201.759 161.506C197.472 152.2 209.097 131.299 209.097 131.299C209.097 131.299 185.203 143.539 189.482 152.365C180.27 150.561 171.181 135.852 176.863 121.98C181.037 111.793 204.643 123.126 204.643 123.126C204.643 123.126 182.256 103.723 176.975 113.048C173.926 96.8822 185.315 78.1869 202.778 82.0332C188.948 94.7474 209.436 118.215 209.436 118.215C209.436 118.215 201.811 92.6259 207.457 86.2998C215.842 76.8939 235.029 91.333 235.143 105.206C225.321 104.466 216.032 124.037 216.032 124.037C216.032 124.037 237.441 116.434 244.997 123.306C252.526 130.211 246.88 149.953 239.457 154.23ZM231.151 150.475C230.785 151.433 230.444 152.393 230.063 153.332C228.013 150.369 226.166 146.753 224.677 142.962C226.768 144.864 228.98 147.373 231.151 150.475ZM228.118 115.906L227.151 115.984L227.752 115.3L228.118 115.906Z" fill="#D5B84E"/>
</g>
<defs>
<clipPath id="clip0_139_581">
<rect width="275" height="275" fill="white"/>
</clipPath>
</defs>
</svg>
