<svg width="294" height="309" viewBox="0 0 294 309" fill="none" xmlns="http://www.w3.org/2000/svg">
<g clip-path="url(#clip0_180_395)">
<path d="M253.603 233C249.28 232.998 245.082 231.551 241.677 228.889C238.271 226.227 235.854 222.502 234.809 218.307C234.583 217.403 234.39 216.499 234.164 215.595C233.711 213.625 233.292 211.687 232.646 209.944C226.446 191.021 225.38 188.114 225.186 187.792C224.98 187.293 224.829 186.773 224.734 186.242C224.524 184.41 223.628 182.725 222.226 181.527C220.824 180.329 219.021 179.706 217.178 179.783C215.57 180.007 214.084 180.766 212.959 181.938C211.834 183.109 211.137 184.625 210.978 186.242C210.926 186.625 210.84 187.004 210.72 187.372L203.164 210.331C202.565 212.304 202.08 214.309 201.71 216.337L201.484 217.403C200.399 222.486 197.346 226.932 192.992 229.771C190.192 231.608 186.95 232.661 183.605 232.82C180.26 232.979 176.933 232.238 173.972 230.675C170.869 229.06 168.243 226.659 166.356 223.713C164.469 220.767 163.388 217.378 163.219 213.883V154.337C163.232 149.369 161.584 144.538 158.536 140.613C155.307 136.508 152.946 131.789 151.597 126.743C150.248 121.697 149.939 116.429 150.69 111.26C152.262 102.921 156.373 95.2713 162.459 89.358C168.546 83.4447 176.311 79.5566 184.693 78.226C190.497 77.5571 196.378 78.2184 201.889 80.1598C207.4 82.1012 212.396 85.2718 216.5 89.4312C221.628 84.2849 228.099 80.6838 235.176 79.0389C242.252 77.3941 249.648 77.7716 256.52 80.1285C263.392 82.4854 269.464 86.7268 274.041 92.3685C278.618 98.0102 281.517 104.825 282.407 112.035C283.47 121.092 281.322 130.234 276.336 137.869C274.1 141.515 272.978 145.735 273.107 150.01V213.076C273.162 217.987 271.393 222.743 268.141 226.424C264.89 230.105 260.388 232.448 255.508 233H253.603ZM237.457 183.432C238.071 185.047 239.718 189.891 245.014 206.036C245.789 208.361 246.305 210.654 246.822 212.85C247.016 213.689 247.209 214.529 247.403 215.369C247.807 216.841 248.72 218.122 249.979 218.985C251.238 219.848 252.762 220.237 254.281 220.083C255.938 219.838 257.446 218.992 258.519 217.705C259.591 216.418 260.151 214.782 260.094 213.108V150.139C259.965 143.285 261.864 136.544 265.551 130.764C267.632 127.908 269.105 124.655 269.878 121.206C270.652 117.757 270.709 114.186 270.047 110.715C269.385 107.243 268.018 103.944 266.03 101.021C264.042 98.0993 261.475 95.6161 258.489 93.7256C255.503 91.8351 252.16 90.5775 248.669 90.0306C245.177 89.4837 241.61 89.6591 238.189 90.546C234.767 91.4329 231.565 93.0124 228.778 95.1868C225.992 97.3612 223.681 100.084 221.99 103.187C221.41 104.122 220.602 104.893 219.641 105.428C218.681 105.963 217.599 106.244 216.5 106.244C215.4 106.244 214.319 105.963 213.358 105.428C212.398 104.893 211.59 104.122 211.01 103.187C208.458 98.9849 204.76 95.5978 200.35 93.4242C195.94 91.2506 191.001 90.3807 186.114 90.9166C180.587 91.9096 175.484 94.5301 171.457 98.4422C167.429 102.354 164.662 107.38 163.509 112.875C162.986 116.349 163.178 119.894 164.072 123.292C164.966 126.69 166.543 129.87 168.708 132.637C173.533 138.841 176.147 146.479 176.135 154.337V213.625C176.218 214.827 176.609 215.987 177.271 216.994C177.932 218.001 178.843 218.82 179.914 219.373C180.855 219.886 181.919 220.13 182.99 220.079C184.06 220.027 185.096 219.683 185.984 219.082C186.735 218.56 187.376 217.895 187.869 217.125C188.362 216.354 188.699 215.494 188.858 214.594L189.084 213.625C189.551 211.115 190.166 208.635 190.925 206.198L198.32 183.594C199.013 178.92 201.358 174.649 204.929 171.555C208.5 168.461 213.062 166.749 217.787 166.73C222.512 166.71 227.087 168.384 230.684 171.449C234.281 174.513 236.661 178.764 237.393 183.432H237.457Z" fill="#454040"/>
<path d="M190.667 132.896C194.233 132.896 197.125 130.004 197.125 126.438C197.125 122.871 194.233 119.979 190.667 119.979C187.1 119.979 184.208 122.871 184.208 126.438C184.208 130.004 187.1 132.896 190.667 132.896Z" fill="#828282"/>
<path d="M213.271 132.896C216.838 132.896 219.729 130.004 219.729 126.438C219.729 122.871 216.838 119.979 213.271 119.979C209.704 119.979 206.812 122.871 206.812 126.438C206.812 130.004 209.704 132.896 213.271 132.896Z" fill="#828282"/>
<path d="M190.667 155.5C194.233 155.5 197.125 152.608 197.125 149.042C197.125 145.475 194.233 142.583 190.667 142.583C187.1 142.583 184.208 145.475 184.208 149.042C184.208 152.608 187.1 155.5 190.667 155.5Z" fill="#828282"/>
<path d="M213.271 155.5C216.838 155.5 219.729 152.608 219.729 149.042C219.729 145.475 216.838 142.583 213.271 142.583C209.704 142.583 206.812 145.475 206.812 149.042C206.812 152.608 209.704 155.5 213.271 155.5Z" fill="#828282"/>
</g>
<g clip-path="url(#clip1_180_395)">
<path d="M165.307 26.3462H155.83V10.5562C155.83 6.86038 154.51 3.4967 152.306 1.56406C150.127 -0.349869 147.355 -0.519263 145.068 1.12518C137.982 6.2213 123.629 9.51458 108.501 9.51458C93.3719 9.51458 79.0187 6.2213 71.9298 1.12298C69.6479 -0.515963 66.8779 -0.350969 64.6972 1.55856C62.4887 3.4967 61.1701 6.85928 61.1701 10.5562V26.3462H51.6935C45.0071 26.3462 39.5674 34.0921 39.5674 43.6134V55.614C39.5674 65.1352 45.0071 72.8812 51.6935 72.8812H61.1701V80.7613C61.1701 87.0156 63.737 92.7773 67.7098 95.4403C81.1136 104.424 104.041 104.879 108.501 104.879C121.383 104.879 138.859 102.401 149.277 95.4447C153.258 92.7861 155.831 87.0212 155.831 80.7558V72.8812H165.308C171.994 72.8812 177.434 65.1352 177.434 55.614V43.6134C177.433 34.0921 171.993 26.3462 165.307 26.3462ZM165.846 55.614C165.846 56.0374 165.604 56.3817 165.307 56.3817H150.037C146.836 56.3817 144.243 60.0743 144.243 64.6314V80.5809C135.514 86.3348 119.554 88.3796 108.501 88.3796C97.4227 88.3796 81.4466 86.337 72.7571 80.5864V64.6325C72.7571 60.0754 70.1639 56.3828 66.9636 56.3828H51.6935C51.3961 56.3828 51.1544 56.0385 51.1544 55.6151V43.6134C51.1544 43.1899 51.3961 42.8456 51.6935 42.8456H66.9636C70.1639 42.8456 72.7571 39.153 72.7571 34.5959V19.3361C81.8428 23.5754 94.6271 26.0129 108.501 26.0129C122.374 26.0129 135.16 23.5754 144.243 19.3372V34.5959C144.243 39.153 146.836 42.8456 150.037 42.8456H165.307C165.604 42.8456 165.846 43.1899 165.846 43.6134V55.614Z" fill="#616161"/>
<path d="M163.835 128.209H155.831V112.419C155.831 108.777 154.478 105.331 152.306 103.427C150.128 101.513 147.355 101.344 145.068 102.988C137.982 108.084 123.629 111.377 108.501 111.377C93.3724 111.377 79.0193 108.084 71.9304 102.986C69.6431 101.344 66.8707 101.512 64.704 103.418C62.5248 105.324 61.1707 108.774 61.1707 112.42V128.21H53.1649C45.6666 128.21 39.5664 136.895 39.5664 147.574V155.385C39.5664 166.061 45.6658 174.747 53.1649 174.747H61.1692V182.627C61.1692 188.882 63.7361 194.643 67.7088 197.306C81.1126 206.29 104.04 206.745 108.5 206.745C121.384 206.745 138.861 204.267 149.276 197.311C153.257 194.652 155.83 188.887 155.83 182.622V174.747H163.834C171.333 174.747 177.433 166.062 177.433 155.385V147.574C177.433 136.894 171.333 128.209 163.835 128.209ZM165.846 155.383C165.846 156.961 164.944 158.246 163.834 158.246H150.037C146.836 158.246 144.243 161.938 144.243 166.495V182.445C135.517 188.199 119.554 190.244 108.5 190.244C97.4225 190.244 81.4464 188.201 72.7569 182.45V166.495C72.7569 161.938 70.1637 158.246 66.9634 158.246H53.1649C52.0556 158.246 51.1534 156.961 51.1534 155.383V147.572C51.1534 145.992 52.0556 144.707 53.1649 144.707H66.9626C70.163 144.707 72.7561 141.015 72.7561 136.458V121.198C81.8419 125.437 94.6261 127.875 108.5 127.875C122.373 127.875 135.159 125.437 144.242 121.199V136.458C144.242 141.015 146.835 144.707 150.036 144.707H163.834C164.943 144.707 165.845 145.992 165.845 147.572V155.383H165.846Z" fill="#616161"/>
<path d="M83.8711 29.668C80.6708 29.668 78.0776 33.3605 78.0776 37.9177V69.6318C78.0776 74.1889 80.6708 77.8815 83.8711 77.8815C87.0714 77.8815 89.6646 74.1889 89.6646 69.6318V37.9177C89.6646 33.3605 87.0714 29.668 83.8711 29.668Z" fill="#616161"/>
<path d="M83.8711 132.319C80.6708 132.319 78.0776 136.011 78.0776 140.568V171.182C78.0776 175.74 80.6708 179.432 83.8711 179.432C87.0714 179.432 89.6646 175.74 89.6646 171.182V140.568C89.6646 136.011 87.0714 132.319 83.8711 132.319Z" fill="#616161"/>
<path d="M163.835 230.466H155.831V214.675C155.831 211.033 154.478 207.587 152.301 205.677C150.122 203.77 147.352 203.602 145.068 205.243C137.982 210.339 123.629 213.632 108.501 213.632C93.3724 213.632 79.0193 210.339 71.9304 205.241C69.6431 203.598 66.8707 203.767 64.704 205.673C62.5248 207.579 61.1707 211.029 61.1707 214.675V230.466H53.1649C45.6666 230.466 39.5664 239.151 39.5664 249.829V257.639C39.5664 268.317 45.6658 277.003 53.1649 277.003H61.1692V284.882C61.1692 291.134 63.7353 296.896 67.7096 299.562C81.115 308.546 104.04 309.001 108.5 309.001C121.383 309.001 138.859 306.523 149.276 299.565C153.257 296.907 155.83 291.142 155.83 284.877V277.003H163.834C171.333 277.003 177.433 268.318 177.433 257.639V249.829C177.433 239.152 171.333 230.466 163.835 230.466ZM165.846 257.638C165.846 259.218 164.944 260.503 163.834 260.503H150.037C146.836 260.503 144.243 264.195 144.243 268.752V284.701C135.515 290.456 119.554 292.5 108.5 292.5C97.4225 292.5 81.4464 290.458 72.7569 284.707V268.752C72.7569 264.195 70.1637 260.503 66.9634 260.503H53.1649C52.0556 260.503 51.1534 259.218 51.1534 257.638V249.827C51.1534 248.248 52.0556 246.964 53.1649 246.964H66.9626C70.163 246.964 72.7561 243.272 72.7561 238.715V223.455C81.8419 227.694 94.6261 230.13 108.5 230.13C122.373 230.13 135.159 227.693 144.242 223.455V238.715C144.242 243.272 146.835 246.964 150.036 246.964H163.834C164.943 246.964 165.845 248.248 165.845 249.827V257.638H165.846Z" fill="#616161"/>
<path d="M83.8711 234.575C80.6708 234.575 78.0776 238.268 78.0776 242.825V273.44C78.0776 277.998 80.6708 281.69 83.8711 281.69C87.0714 281.69 89.6646 277.998 89.6646 273.44V242.825C89.6646 238.268 87.0714 234.575 83.8711 234.575Z" fill="#616161"/>
</g>
<defs>
<clipPath id="clip0_180_395">
<rect width="155" height="155" fill="white" transform="translate(139 78)"/>
</clipPath>
<clipPath id="clip1_180_395">
<rect width="217" height="309" fill="white"/>
</clipPath>
</defs>
</svg>
