<svg width="74" height="72" viewBox="0 0 74 72" fill="none" xmlns="http://www.w3.org/2000/svg">
<g clip-path="url(#clip0_162_467)">
<path d="M57.5813 2.41876L46.597 13.1063C42.2177 10.6734 36.5231 11.2781 32.7798 14.9203C28.2993 19.2797 28.2993 26.3672 32.7798 30.7266C34.5286 32.4281 36.7833 33.5109 39.1825 33.8766C39.5438 36.2109 40.6712 38.4047 42.42 40.1063C46.9005 44.4656 54.1849 44.4656 58.6653 40.1063C62.4087 36.4641 63.0157 30.9375 60.5298 26.6625L71.5142 15.975C72.6993 14.8219 72.6993 12.9516 71.5142 11.7844C70.329 10.6313 68.4067 10.6313 67.2071 11.7844L54.3583 24.2859C53.1731 25.4391 53.1731 27.3094 54.3583 28.4766C56.4685 30.5297 56.4685 33.8625 54.3583 35.9156C52.2481 37.9688 48.8228 37.9688 46.7126 35.9156C45.4841 34.7203 44.9349 33.075 45.195 31.3875C45.3396 30.4594 45.0216 29.5172 44.3423 28.8422C43.663 28.1813 42.6946 27.8719 41.7263 28.0125C40.0063 28.2656 38.3009 27.7313 37.0724 26.5359C34.9622 24.4828 34.9622 21.15 37.0724 19.0969C39.1825 17.0438 42.6079 17.0438 44.7181 19.0969C45.9032 20.25 47.8255 20.25 49.0251 19.0969L61.8739 6.59532C63.0591 5.4422 63.0591 3.57189 61.8739 2.4047C60.7032 1.25158 58.7665 1.25157 57.5813 2.41876Z" fill="#535050"/>
<path d="M34.803 38.1375C34.4417 35.8031 33.3144 33.6094 31.5655 31.9078C27.0851 27.5484 19.8007 27.5484 15.3202 31.9078C11.5769 35.55 10.9698 41.0766 13.4558 45.3516L2.47139 56.0391C1.28623 57.1922 1.28623 59.0625 2.47139 60.2297C3.65654 61.3828 5.57881 61.3828 6.77842 60.2297L19.6272 47.7281C20.8124 46.575 20.8124 44.7047 19.6272 43.5375C17.5171 41.4844 17.5171 38.1516 19.6272 36.0984C21.7374 34.0453 25.1628 34.0453 27.2729 36.0984C28.5015 37.2938 29.0507 38.9391 28.7905 40.6266C28.646 41.5547 28.964 42.4969 29.6433 43.1719C30.3226 43.8328 31.2909 44.1422 32.2593 44.0016C33.9792 43.7484 35.6847 44.2828 36.9132 45.4781C39.0233 47.5313 39.0233 50.8641 36.9132 52.9172C34.803 54.9703 31.3776 54.9703 29.2675 52.9172C28.0823 51.7641 26.1601 51.7641 24.9604 52.9172L12.1116 65.4047C10.9265 66.5578 10.9265 68.4281 12.1116 69.5953C13.2968 70.7625 15.219 70.7485 16.4187 69.5953L27.403 58.9078C31.7823 61.3406 37.4769 60.736 41.2202 57.0938C45.7007 52.7344 45.7007 45.6469 41.2202 41.2875C39.4714 39.5719 37.2022 38.4891 34.803 38.1375Z" fill="#535050"/>
<g clip-path="url(#clip1_162_467)">
<path d="M76 36H37V75H76V36Z" fill="white" fill-opacity="0.01"/>
<path fill-rule="evenodd" clip-rule="evenodd" d="M47.6657 39.9H48.385C52.1763 40.4606 53.2044 42.6124 56.5082 42.6124C59.8119 42.6124 60.8397 40.4607 64.6311 39.9H65.0394C69.3024 39.9 72.7582 43.3558 72.7582 47.6188V48.1273C72.7582 50.4858 70.2466 53.179 69.5082 55.7299C68.7239 58.4392 68.1866 60.6533 68.0289 62.9704C67.6593 68.3985 65.8086 70.775 63.8207 70.775C60.852 70.775 58.2156 58.6079 56.5589 58.6079C54.9022 58.6079 51.6147 70.775 49.1957 70.775C47.7193 70.775 45.8067 69.9019 45.0887 62.9704C44.803 60.2125 44.3214 58.5393 43.5082 55.7299C42.7933 53.2605 40.3814 50.309 40.2582 47.6603C40.0678 43.5692 43.2299 40.0984 47.321 39.9081C47.4358 39.9027 47.5507 39.9 47.6657 39.9Z" fill="white" stroke="#454040" stroke-width="3"/>
<path d="M49.5796 46.1265L63.0005 50.4533" stroke="white" stroke-width="2" stroke-linecap="round"/>
<path d="M49.5796 50.4532L63.0005 46.1263" stroke="white" stroke-width="2" stroke-linecap="round"/>
</g>
</g>
<defs>
<clipPath id="clip0_162_467">
<rect width="72" height="74" fill="white" transform="matrix(0 -1 1 0 0 72)"/>
</clipPath>
<clipPath id="clip1_162_467">
<rect width="39" height="39" fill="white" transform="translate(37 36)"/>
</clipPath>
</defs>
</svg>
