<svg width="113" height="113" viewBox="0 0 113 113" fill="none" xmlns="http://www.w3.org/2000/svg">
<g clip-path="url(#clip0_139_1036)">
<path d="M56.5 28.8386L13.6287 66.6445C13.3109 66.931 12.9048 67.0644 12.5556 67.3018V103.583C12.5556 104.416 12.8863 105.214 13.4749 105.803C14.0636 106.392 14.862 106.722 15.6944 106.722H97.3056C98.138 106.722 98.9364 106.392 99.5251 105.803C100.114 105.214 100.444 104.416 100.444 103.583V67.3096C100.111 67.082 99.7147 66.9525 99.4125 66.6818L56.5 28.8386ZM75.3333 80.0417C75.3333 80.458 75.168 80.8572 74.8737 81.1515C74.5793 81.4458 74.1801 81.6112 73.7639 81.6112H62.7778V92.5973C62.7778 93.0135 62.6124 93.4127 62.3181 93.707C62.0238 94.0014 61.6246 94.1667 61.2083 94.1667H51.7917C51.3754 94.1667 50.9762 94.0014 50.6819 93.707C50.3876 93.4127 50.2222 93.0135 50.2222 92.5973V81.6112H39.2361C38.8199 81.6112 38.4207 81.4458 38.1263 81.1515C37.832 80.8572 37.6667 80.458 37.6667 80.0417V70.6251C37.6667 70.2088 37.832 69.8096 38.1263 69.5153C38.4207 69.221 38.8199 69.0556 39.2361 69.0556H50.2222V58.0695C50.2222 57.6533 50.3876 57.2541 50.6819 56.9597C50.9762 56.6654 51.3754 56.5001 51.7917 56.5001H61.2083C61.6246 56.5001 62.0238 56.6654 62.3181 56.9597C62.6124 57.2541 62.7778 57.6533 62.7778 58.0695V69.0556H73.7639C74.1801 69.0556 74.5793 69.221 74.8737 69.5153C75.168 69.8096 75.3333 70.2088 75.3333 70.6251V80.0417ZM111.958 52.6314L61.7478 8.29457C60.3107 6.99527 58.4423 6.27588 56.5049 6.27588C54.5675 6.27588 52.6991 6.99527 51.262 8.29457L1.03976 52.6314C0.73297 52.9069 0.483466 53.2401 0.305497 53.612C0.127527 53.9839 0.0245802 54.3873 0.00253622 54.799C-0.0195078 55.2108 0.0397833 55.6228 0.177022 56.0116C0.314261 56.4004 0.526759 56.7584 0.802377 57.0651L5.0026 61.7381C5.27809 62.0449 5.61131 62.2944 5.98325 62.4723C6.35518 62.6503 6.75853 62.7532 7.17026 62.7753C7.582 62.7973 7.99404 62.738 8.38285 62.6008C8.77166 62.4636 9.12962 62.2511 9.43628 61.9755L54.4244 22.292C54.9979 21.7861 55.7363 21.507 56.501 21.507C57.2657 21.507 58.0041 21.7861 58.5776 22.292L103.566 61.9735C103.872 62.2491 104.23 62.4616 104.619 62.5988C105.008 62.7361 105.42 62.7954 105.832 62.7733C106.243 62.7513 106.647 62.6483 107.019 62.4704C107.391 62.2924 107.724 62.0429 107.999 61.7361L112.198 57.0631C112.753 56.4436 113.04 55.6287 112.996 54.7977C112.951 53.9666 112.578 53.1874 111.958 52.6314Z" fill="#388E3C"/>
</g>
<defs>
<clipPath id="clip0_139_1036">
<rect width="113" height="113" fill="white"/>
</clipPath>
</defs>
</svg>
