<svg width="45" height="45" viewBox="0 0 45 45" fill="none" xmlns="http://www.w3.org/2000/svg">
<path d="M34.5812 11.0437C32.3262 9.97493 29.9246 9.18743 27.3946 8.73743C27.0829 9.29993 26.7162 10.0687 26.4779 10.6874C23.8012 10.2749 21.1429 10.2749 18.5213 10.6874C18.2646 10.0687 17.8979 9.29993 17.5863 8.73743C15.0563 9.18743 12.6546 9.97493 10.3996 11.0437C5.85293 18.0562 4.6246 24.9 5.2296 31.6312C8.2546 33.9375 11.1696 35.325 14.0479 36.2437C14.7629 35.25 15.3863 34.1812 15.9363 33.075C14.8913 32.6812 13.9013 32.175 12.9663 31.5937C13.2229 31.4062 13.4613 31.2 13.6996 31.0125C19.4379 33.75 25.6529 33.75 31.3179 31.0125C31.5562 31.2187 31.7946 31.4062 32.0512 31.5937C31.1162 32.175 30.1079 32.6625 29.0812 33.075C29.6312 34.1812 30.2546 35.25 30.9696 36.2437C33.8479 35.325 36.7812 33.9375 39.7879 31.6312C40.5029 23.8125 38.5596 17.0437 34.6179 11.0437H34.5812ZM16.7063 27.5062C14.9829 27.5062 13.5713 25.875 13.5713 23.8687C13.5713 21.8625 14.9463 20.2312 16.7063 20.2312C18.4663 20.2312 19.8596 21.8625 19.8412 23.8687C19.8412 25.8562 18.4663 27.5062 16.7063 27.5062ZM28.2746 27.5062C26.5512 27.5062 25.1396 25.875 25.1396 23.8687C25.1396 21.8625 26.5146 20.2312 28.2746 20.2312C30.0346 20.2312 31.4279 21.8625 31.4096 23.8687C31.4096 25.8562 30.0346 27.5062 28.2746 27.5062Z" fill="white"/>
</svg>
