<svg width="60" height="60" viewBox="0 0 60 60" fill="none" xmlns="http://www.w3.org/2000/svg">
<g clip-path="url(#clip0_162_506)">
<path d="M30.0001 45.0009C16.6923 45.0009 9.90952 34.0003 7.88452 30.0113C9.91327 26.0559 16.773 15 30.0001 15C43.308 15 50.0917 26.0006 52.1167 29.9888C50.088 33.945 43.2273 45.0009 30.0001 45.0009Z" fill="#F9EBB2"/>
<path d="M59.733 28.1088C59.389 27.2444 51.0462 7 29.9993 7C8.95242 7 0.610547 27.2444 0.266484 28.1088C-0.0888281 29.0022 -0.0888281 29.9988 0.266484 30.8922C0.610547 31.7566 8.95242 52.0009 29.9993 52.0009C51.0462 52.0009 59.389 31.7566 59.733 30.8913C60.0884 29.9978 60.0884 29.0022 59.733 28.1088ZM29.9993 44.5009C16.6915 44.5009 9.90867 33.5003 7.88367 29.5113C9.91242 25.5559 16.7721 14.5 29.9993 14.5C43.3071 14.5 50.0909 25.5006 52.1159 29.4888C50.0871 33.445 43.2265 44.5009 29.9993 44.5009Z" fill="#394240"/>
<path d="M29.9993 37C34.1414 37 37.4993 33.6421 37.4993 29.5C37.4993 25.3579 34.1414 22 29.9993 22C25.8571 22 22.4993 25.3579 22.4993 29.5C22.4993 33.6421 25.8571 37 29.9993 37Z" fill="#394240"/>
</g>
<defs>
<clipPath id="clip0_162_506">
<rect width="60" height="60" fill="white"/>
</clipPath>
</defs>
</svg>
