<svg width="25" height="25" viewBox="0 0 25 25" fill="none" xmlns="http://www.w3.org/2000/svg">
<path d="M12.134 2.54015C6.63406 2.52344 2.12043 6.99975 2.10363 12.5297C2.08844 17.5297 5.73581 21.6908 10.5135 22.4553L10.5348 15.4554L7.99479 15.4476L8.0036 12.5476L10.5436 12.5554L10.5503 10.3454C10.5579 7.83539 12.0521 6.45992 14.3421 6.46688C15.4321 6.47019 16.5715 6.66366 16.5715 6.66366L16.564 9.13365L15.304 9.12982C14.064 9.12605 13.6717 9.89486 13.6693 10.6849L13.6636 12.5648L16.4436 12.5733L15.9848 15.4719L13.6548 15.4648L13.6335 22.4648C15.9911 22.0998 18.1405 20.904 19.6937 19.0933C21.2469 17.2825 22.1016 14.9761 22.1035 12.5905C22.1203 7.06052 17.634 2.55687 12.134 2.54015Z" fill="white"/>
</svg>
