<svg width="154" height="154" viewBox="0 0 154 154" fill="none" xmlns="http://www.w3.org/2000/svg">
<path d="M110.191 83.9781V81.3313C112.131 77.8121 113.244 73.7817 113.244 69.4805C113.244 55.9604 102.281 44.9969 88.7607 44.9969C86.4146 44.9969 84.1287 45.3428 81.9781 45.9594C77.5266 41.2973 71.2402 38.3797 64.2771 38.3797C50.757 38.3797 39.7936 49.3432 39.7936 62.8633C39.7936 67.7961 41.2523 72.383 43.7639 76.233V83.9932C30.2438 83.9932 19.2803 94.9566 19.2803 108.477C19.2803 121.997 30.2438 132.96 43.7639 132.96H110.176C123.696 132.96 134.66 121.997 134.66 108.477C134.675 94.9416 123.712 83.9781 110.191 83.9781Z" fill="#218649"/>
<path d="M117.981 107.589V99.3932C120.673 98.9721 123.215 98.19 125.531 97.1223C125.501 97.3779 125.486 97.6486 125.486 97.9193C125.483 99.0861 125.789 100.233 126.373 101.243L117.981 107.589ZM110.191 83.9781V81.3312C112.131 77.8121 113.244 73.7816 113.244 69.4805C113.244 64.9086 111.981 60.6375 109.8 56.968C97.2875 58.3666 87.6174 67.375 87.6174 78.2783C87.6174 88.7756 96.5807 97.5283 108.431 99.3932V132.945H110.176C112.898 132.945 115.515 132.494 117.951 131.682V113.004L129.516 104.236C130.689 104.837 132.028 105.183 133.471 105.183C133.787 105.183 134.103 105.168 134.419 105.138C132.825 93.182 122.583 83.9781 110.191 83.9781ZM43.3875 107.589L35.0107 101.228C35.5943 100.218 35.9005 99.071 35.898 97.9043C35.898 97.6336 35.883 97.3629 35.8529 97.1072C38.1689 98.175 40.7105 98.957 43.4025 99.3781L43.3875 107.589ZM48.1549 56.7725C45.4178 56.7725 42.7859 57.1334 40.3195 57.7951C39.9736 59.4193 39.7932 61.1037 39.7932 62.8482C39.7932 67.7811 41.252 72.368 43.7635 76.218V83.9781C37.3418 83.9781 31.4916 86.4596 27.1152 90.5051C27.1604 90.5652 27.2055 90.6104 27.2506 90.6705C27.1453 90.6856 27.025 90.6855 26.9197 90.7006C24.0172 93.4527 21.7764 96.9268 20.498 100.822C21.7312 103.394 24.5586 105.183 27.8521 105.183C29.2959 105.183 30.6344 104.837 31.8074 104.236L43.3725 113.004V132.93C43.4928 132.93 43.6281 132.945 43.7484 132.945H52.8922V99.3932C64.743 97.5133 73.7062 88.7756 73.7062 78.2783C73.7213 66.3975 62.2766 56.7725 48.1549 56.7725Z" fill="black"/>
<path d="M39.0111 87.3318V107.589L26.4234 98.0397L23.8066 101.484L39.0111 113.004V132.945H48.5309V87.3318H39.0111Z" fill="#D68231"/>
<path d="M15.46 97.9193C15.46 98.8732 15.6677 99.8178 16.0713 100.699C16.4749 101.58 17.0664 102.381 17.8121 103.056C18.5579 103.73 19.4432 104.265 20.4175 104.63C21.3919 104.995 22.4362 105.183 23.4908 105.183C24.5454 105.183 25.5897 104.995 26.5641 104.63C27.5384 104.265 28.4238 103.73 29.1695 103.056C29.9152 102.381 30.5068 101.58 30.9104 100.699C31.314 99.8178 31.5217 98.8732 31.5217 97.9193C31.5217 96.9654 31.314 96.0209 30.9104 95.1396C30.5068 94.2583 29.9152 93.4575 29.1695 92.783C28.4238 92.1085 27.5384 91.5734 26.5641 91.2084C25.5897 90.8433 24.5454 90.6555 23.4908 90.6555C22.4362 90.6555 21.3919 90.8433 20.4175 91.2084C19.4432 91.5734 18.5579 92.1085 17.8121 92.783C17.0664 93.4575 16.4749 94.2583 16.0713 95.1396C15.6677 96.0209 15.46 96.9654 15.46 97.9193Z" fill="#7CDFA8"/>
<path d="M48.5309 87.3318V103.439C46.9668 103.649 45.3727 103.77 43.7635 103.77C42.1543 103.77 40.5602 103.664 38.9961 103.439V87.3318H48.5309Z" fill="black"/>
<path d="M18.2124 78.2633C18.2124 83.963 20.906 89.4293 25.7006 93.4596C30.4953 97.4899 36.9982 99.7541 43.7788 99.7541C50.5594 99.7541 57.0624 97.4899 61.857 93.4596C66.6516 89.4293 69.3452 83.963 69.3452 78.2633C69.3452 72.5636 66.6516 67.0973 61.857 63.067C57.0624 59.0367 50.5594 56.7725 43.7788 56.7725C36.9982 56.7725 30.4953 59.0367 25.7006 63.067C20.906 67.0973 18.2124 72.5636 18.2124 78.2633Z" fill="#00AD68"/>
<path d="M130.163 101.484L127.546 98.0397L114.959 107.589V87.3318H105.439V132.945H114.959V113.004L130.163 101.484Z" fill="#D68231"/>
<path d="M122.448 97.9193C122.448 98.8732 122.656 99.8178 123.06 100.699C123.463 101.58 124.055 102.381 124.8 103.056C125.546 103.73 126.431 104.265 127.406 104.63C128.38 104.995 129.424 105.183 130.479 105.183C131.534 105.183 132.578 104.995 133.552 104.63C134.527 104.265 135.412 103.73 136.158 103.056C136.904 102.381 137.495 101.58 137.899 100.699C138.302 99.8178 138.51 98.8732 138.51 97.9193C138.51 96.9654 138.302 96.0209 137.899 95.1396C137.495 94.2583 136.904 93.4575 136.158 92.783C135.412 92.1085 134.527 91.5734 133.552 91.2084C132.578 90.8433 131.534 90.6555 130.479 90.6555C129.424 90.6555 128.38 90.8433 127.406 91.2084C126.431 91.5734 125.546 92.1085 124.8 92.783C124.055 93.4575 123.463 94.2583 123.06 95.1396C122.656 96.0209 122.448 96.9654 122.448 97.9193Z" fill="#7CDFA8"/>
<path d="M105.439 87.3318V103.439C107.003 103.649 108.597 103.77 110.206 103.77C111.816 103.77 113.41 103.664 114.974 103.439V87.3318H105.439Z" fill="black"/>
<path d="M84.625 78.2633C84.625 83.963 87.3186 89.4293 92.1132 93.4596C96.9079 97.4899 103.411 99.7541 110.191 99.7541C116.972 99.7541 123.475 97.4899 128.27 93.4596C133.064 89.4293 135.758 83.963 135.758 78.2633C135.758 72.5636 133.064 67.0973 128.27 63.067C123.475 59.0367 116.972 56.7725 110.191 56.7725C103.411 56.7725 96.9079 59.0367 92.1132 63.067C87.3186 67.0973 84.625 72.5636 84.625 78.2633Z" fill="#00AD68"/>
<path d="M144.495 135.021C144.495 135.667 143.969 136.179 143.337 136.179H10.6326C9.98594 136.179 9.47461 135.652 9.47461 135.021V130.855C9.47461 130.208 10.001 129.697 10.6326 129.697H143.322C143.969 129.697 144.48 130.223 144.48 130.855V135.021H144.495Z" fill="#00AD68"/>
<path d="M15.6255 113.034H53.4487V129.697H15.6255V113.034Z" fill="#A4A9AD"/>
<path d="M15.6255 113.034H53.4487V119.756H15.6255V113.034Z" fill="black"/>
<path d="M53.4641 109.199H15.6258C14.0467 109.199 12.7383 110.492 12.7383 112.086V113.996C12.7383 115.575 14.0316 116.884 15.6258 116.884H53.449V109.199H53.4641Z" fill="#D1D3D3"/>
<path d="M42.4102 109.199H53.4639V129.697H42.4102V109.199Z" fill="black"/>
<path d="M17.9268 120.779C17.9268 120.911 17.9528 121.042 18.0035 121.164C18.0541 121.287 18.1283 121.398 18.2219 121.491C18.3154 121.585 18.4265 121.659 18.5488 121.71C18.671 121.76 18.8021 121.786 18.9344 121.786C19.0667 121.786 19.1977 121.76 19.32 121.71C19.4422 121.659 19.5533 121.585 19.6469 121.491C19.7404 121.398 19.8147 121.287 19.8653 121.164C19.9159 121.042 19.942 120.911 19.942 120.779C19.942 120.511 19.8358 120.255 19.6469 120.066C19.4579 119.877 19.2016 119.771 18.9344 119.771C18.6671 119.771 18.4108 119.877 18.2219 120.066C18.0329 120.255 17.9268 120.511 17.9268 120.779Z" fill="black"/>
<path d="M28.6343 121.786C28.6343 122.054 28.7404 122.31 28.9294 122.499C29.1184 122.688 29.3747 122.794 29.6419 122.794C29.9091 122.794 30.1654 122.688 30.3544 122.499C30.5434 122.31 30.6495 122.054 30.6495 121.786C30.6495 121.519 30.5434 121.263 30.3544 121.074C30.1654 120.885 29.9091 120.779 29.6419 120.779C29.3747 120.779 29.1184 120.885 28.9294 121.074C28.7404 121.263 28.6343 121.519 28.6343 121.786Z" fill="black"/>
<path d="M34.5449 124.914C34.5449 125.182 34.6511 125.438 34.84 125.627C35.029 125.816 35.2853 125.922 35.5525 125.922C35.8198 125.922 36.0761 125.816 36.265 125.627C36.454 125.438 36.5602 125.182 36.5602 124.914C36.5602 124.647 36.454 124.391 36.265 124.202C36.0761 124.013 35.8198 123.907 35.5525 123.907C35.2853 123.907 35.029 124.013 34.84 124.202C34.6511 124.391 34.5449 124.647 34.5449 124.914Z" fill="black"/>
<path d="M38.7856 119.771C38.7856 119.903 38.8117 120.034 38.8623 120.157C38.913 120.279 38.9872 120.39 39.0808 120.484C39.1743 120.577 39.2854 120.651 39.4077 120.702C39.5299 120.753 39.6609 120.779 39.7933 120.779C39.9256 120.779 40.0566 120.753 40.1789 120.702C40.3011 120.651 40.4122 120.577 40.5058 120.484C40.5993 120.39 40.6735 120.279 40.7242 120.157C40.7748 120.034 40.8009 119.903 40.8009 119.771C40.8009 119.639 40.7748 119.508 40.7242 119.386C40.6735 119.263 40.5993 119.152 40.5058 119.059C40.4122 118.965 40.3011 118.891 40.1789 118.84C40.0566 118.79 39.9256 118.763 39.7933 118.763C39.6609 118.763 39.5299 118.79 39.4077 118.84C39.2854 118.891 39.1743 118.965 39.0808 119.059C38.9872 119.152 38.913 119.263 38.8623 119.386C38.8117 119.508 38.7856 119.639 38.7856 119.771Z" fill="black"/>
<path d="M100.506 113.034H138.329V129.697H100.506V113.034Z" fill="#A4A9AD"/>
<path d="M100.506 113.034H138.329V119.756H100.506V113.034Z" fill="black"/>
<path d="M100.506 109.199H138.329C139.908 109.199 141.217 110.492 141.217 112.086V113.996C141.217 115.575 139.923 116.884 138.329 116.884H100.506V109.199Z" fill="#D1D3D3"/>
<path d="M100.506 109.199H111.56V129.697H100.506V109.199Z" fill="black"/>
<path d="M134.013 120.779C134.013 121.046 134.119 121.302 134.308 121.491C134.497 121.68 134.754 121.786 135.021 121.786C135.288 121.786 135.544 121.68 135.733 121.491C135.922 121.302 136.028 121.046 136.028 120.779C136.028 120.511 135.922 120.255 135.733 120.066C135.544 119.877 135.288 119.771 135.021 119.771C134.754 119.771 134.497 119.877 134.308 120.066C134.119 120.255 134.013 120.511 134.013 120.779Z" fill="black"/>
<path d="M123.305 121.786C123.305 122.054 123.411 122.31 123.6 122.499C123.789 122.688 124.046 122.794 124.313 122.794C124.58 122.794 124.836 122.688 125.025 122.499C125.214 122.31 125.32 122.054 125.32 121.786C125.32 121.519 125.214 121.263 125.025 121.074C124.836 120.885 124.58 120.779 124.313 120.779C124.046 120.779 123.789 120.885 123.6 121.074C123.411 121.263 123.305 121.519 123.305 121.786Z" fill="black"/>
<path d="M117.41 124.914C117.41 125.182 117.516 125.438 117.705 125.627C117.894 125.816 118.151 125.922 118.418 125.922C118.685 125.922 118.941 125.816 119.13 125.627C119.319 125.438 119.425 125.182 119.425 124.914C119.425 124.647 119.319 124.391 119.13 124.202C118.941 124.013 118.685 123.907 118.418 123.907C118.151 123.907 117.894 124.013 117.705 124.202C117.516 124.391 117.41 124.647 117.41 124.914Z" fill="black"/>
<path d="M113.154 119.771C113.154 119.903 113.18 120.034 113.231 120.157C113.281 120.279 113.355 120.39 113.449 120.484C113.542 120.577 113.654 120.651 113.776 120.702C113.898 120.753 114.029 120.779 114.161 120.779C114.294 120.779 114.425 120.753 114.547 120.702C114.669 120.651 114.78 120.577 114.874 120.484C114.967 120.39 115.042 120.279 115.092 120.157C115.143 120.034 115.169 119.903 115.169 119.771C115.169 119.639 115.143 119.508 115.092 119.386C115.042 119.263 114.967 119.152 114.874 119.059C114.78 118.965 114.669 118.891 114.547 118.84C114.425 118.79 114.294 118.763 114.161 118.763C114.029 118.763 113.898 118.79 113.776 118.84C113.654 118.891 113.542 118.965 113.449 119.059C113.355 119.152 113.281 119.263 113.231 119.386C113.18 119.508 113.154 119.639 113.154 119.771Z" fill="black"/>
<path d="M106.266 129.697H94.7463V84.4293C94.7463 74.6389 86.7756 66.6682 76.9852 66.6682C67.1947 66.6682 59.224 74.6389 59.224 84.4293V129.697H47.7041V84.4293C47.7041 68.2774 60.8482 55.1483 76.9852 55.1483C93.1221 55.1483 106.266 68.2774 106.266 84.4293V129.697Z" fill="#D1D3D3"/>
<path d="M94.7463 115.395H106.266V111.079H94.7463V115.395ZM94.7463 100.987H106.266V96.6711H94.7463V100.987ZM106.191 82.2637H94.6109C94.7012 82.9705 94.7463 83.6924 94.7463 84.4293V86.5949H106.266V84.4293C106.266 83.7074 106.236 82.9856 106.191 82.2637ZM96.0998 62.2617L87.9185 70.443C89.0615 71.3303 90.0842 72.368 90.9715 73.4959L99.1527 65.3147C98.2053 64.2318 97.1977 63.2092 96.0998 62.2617ZM54.8176 65.3147L62.9988 73.4959C63.8861 72.3529 64.9238 71.3303 66.0518 70.443L57.8705 62.2617C56.7727 63.2092 55.75 64.2168 54.8176 65.3147ZM47.7041 100.987H59.224V96.6711H47.7041V100.987ZM47.7041 115.395H59.224V111.079H47.7041V115.395ZM74.8195 55.2234V66.8035C75.5264 66.7133 76.2482 66.6682 76.9852 66.6682C77.7221 66.6682 78.4439 66.7133 79.1508 66.8035V55.2234C78.4439 55.1783 77.7221 55.1483 76.9852 55.1483C76.2633 55.1483 75.5414 55.1783 74.8195 55.2234ZM47.7041 84.4293V86.5949H59.224V84.4293C59.224 83.6924 59.2691 82.9705 59.3594 82.2637H47.7793C47.7191 82.9856 47.7041 83.7074 47.7041 84.4293Z" fill="black"/>
<path d="M23.4458 126.93C23.4458 127.197 23.552 127.453 23.7409 127.642C23.9299 127.831 24.1862 127.937 24.4534 127.937C24.7207 127.937 24.9769 127.831 25.1659 127.642C25.3549 127.453 25.461 127.197 25.461 126.93C25.461 126.662 25.3549 126.406 25.1659 126.217C24.9769 126.028 24.7207 125.922 24.4534 125.922C24.1862 125.922 23.9299 126.028 23.7409 126.217C23.552 126.406 23.4458 126.662 23.4458 126.93Z" fill="black"/>
<path d="M107.153 31.2812C107.153 34.9188 108.598 38.4075 111.171 40.9796C113.743 43.5518 117.231 44.9969 120.869 44.9969C124.507 44.9969 127.995 43.5518 130.567 40.9796C133.14 38.4075 134.585 34.9188 134.585 31.2812C134.585 27.6436 133.14 24.155 130.567 21.5828C127.995 19.0106 124.507 17.5656 120.869 17.5656C117.231 17.5656 113.743 19.0106 111.171 21.5828C108.598 24.155 107.153 27.6436 107.153 31.2812Z" fill="#FFB819"/>
<path d="M84.1585 122.283C86.6549 119.786 89.1364 111.635 88.7303 111.214C88.3092 110.793 80.1581 113.289 77.6616 115.786C75.1651 118.282 74.5936 121.771 76.3833 123.561C78.1729 125.351 81.6469 124.779 84.1585 122.283Z" fill="#7CDFA8"/>
<path d="M71.6309 106.266C69.1344 103.77 66.653 95.6183 67.059 95.1973C67.4801 94.7762 75.6313 97.2726 78.1278 99.7691C80.6243 102.266 81.1957 105.755 79.4061 107.544C77.6014 109.334 74.1274 108.762 71.6309 106.266Z" fill="#00AD68"/>
<path d="M122.824 81.0455C125.32 78.549 127.802 70.3978 127.396 69.9767C126.975 69.5556 118.824 72.0521 116.327 74.5486C113.831 77.0451 113.259 80.5342 115.049 82.3238C116.838 84.1285 120.328 83.542 122.824 81.0455Z" fill="#7CDFA8"/>
<path d="M30.9956 83.6473C28.4992 81.1508 26.0177 72.9996 26.4238 72.5785C26.8449 72.1574 34.996 74.6539 37.4925 77.1504C39.989 79.6469 40.5605 83.1359 38.7708 84.9256C36.9812 86.7152 33.5072 86.1437 30.9956 83.6473Z" fill="#218649"/>
</svg>
