<svg width="110" height="109" viewBox="0 0 110 109" fill="none" xmlns="http://www.w3.org/2000/svg">
<path d="M73.3334 2.2701H9.16455V90.8304H73.3334V2.2701Z" fill="#E6E9ED"/>
<path d="M73.3322 0H9.16443C7.89875 0 6.875 1.01615 6.875 2.27032V90.8313C6.875 92.0886 7.89897 93.1067 9.16443 93.1067H73.3322C74.5977 93.1067 75.6249 92.0888 75.6249 90.8313V2.27011C75.6249 1.01615 74.5977 0 73.3322 0ZM71.0394 88.5624H11.4573V4.54213H71.0396L71.0394 88.5624Z" fill="#434A54"/>
<path d="M57.2894 11.3546H25.2073L20.625 0H61.8751L57.2894 11.3546Z" fill="#FFCE54"/>
<path d="M45.8322 2.2701H36.6644C35.3988 2.2701 34.375 3.28796 34.375 4.54191C34.375 5.79587 35.399 6.81223 36.6644 6.81223H45.8322C47.0977 6.81223 48.1249 5.79608 48.1249 4.54191C48.1249 3.28774 47.0977 2.2701 45.8322 2.2701Z" fill="#F6BB42"/>
<path d="M61.7708 54.5H20.7255C19.4598 54.5 18.436 53.4838 18.436 52.2297C18.436 50.9755 19.46 49.9577 20.7255 49.9577H61.7706C63.0363 49.9577 64.0635 50.9755 64.0635 52.2297C64.0635 53.4838 63.0363 54.5 61.7708 54.5Z" fill="#434A54"/>
<path d="M61.7708 63.5811H20.7255C19.4598 63.5811 18.436 62.5664 18.436 61.3124C18.436 60.0585 19.46 59.0438 20.7255 59.0438H61.7706C63.0363 59.0438 64.0635 60.0585 64.0635 61.3124C64.0635 62.5664 63.0363 63.5811 61.7708 63.5811Z" fill="#434A54"/>
<path d="M41.2498 72.6689H20.7255C19.4598 72.6689 18.436 71.6511 18.436 70.3935C18.436 69.1427 19.46 68.1249 20.7255 68.1249H41.2498C42.5152 68.1249 43.5392 69.1427 43.5392 70.3935C43.5392 71.6511 42.5154 72.6689 41.2498 72.6689Z" fill="#434A54"/>
<path d="M43.5392 40.8749C42.955 40.8749 42.3676 40.6537 41.9211 40.2096C41.025 39.3231 41.025 37.8846 41.9211 36.9981L55.671 23.373C56.5639 22.4865 58.0142 22.4865 58.9105 23.373C59.8069 24.2595 59.8069 25.6982 58.9105 26.5847L45.1606 40.2096C44.7142 40.6537 44.1268 40.8749 43.5392 40.8749Z" fill="#DA4453"/>
<path d="M43.5391 40.8749C43.1227 40.8749 42.7031 40.7636 42.3239 40.5289L23.9917 29.1759C22.9175 28.5106 22.592 27.1101 23.2632 26.0457C23.9346 24.9829 25.3478 24.6584 26.4221 25.3237L44.7543 36.6785C45.8285 37.3421 46.154 38.7442 45.4828 39.8068C45.0497 40.4974 44.3012 40.8749 43.5391 40.8749Z" fill="#DA4453"/>
<path d="M25.207 20.4373C21.417 20.4373 18.332 23.4926 18.332 27.25C18.332 31.0055 21.417 34.0625 25.207 34.0625C28.9969 34.0625 32.0821 31.0055 32.0821 27.25C32.0821 23.4926 28.9969 20.4373 25.207 20.4373Z" fill="#ED5564"/>
<path d="M43.539 31.7921C39.7491 31.7921 36.6641 34.8476 36.6641 38.6048C36.6641 42.3603 39.7491 45.4174 43.539 45.4174C47.3324 45.4174 50.4142 42.3605 50.4142 38.6048C50.4142 34.8474 47.3324 31.7921 43.539 31.7921Z" fill="#ED5564"/>
<path d="M57.289 18.1672C53.4991 18.1672 50.4141 21.2225 50.4141 24.9797C50.4141 28.7352 53.4991 31.7921 57.289 31.7921C61.0824 31.7921 64.1642 28.7352 64.1642 24.9797C64.1642 21.2225 61.0826 18.1672 57.289 18.1672Z" fill="#ED5564"/>
<path d="M100.832 79.4814H18.3324C17.0667 79.4814 16.0396 80.496 16.0396 81.75V90.8311C16.0396 92.0884 17.0667 93.1065 18.3324 93.1065H100.832C102.098 93.1065 103.125 92.0886 103.125 90.8311V81.75C103.125 80.4958 102.098 79.4814 100.832 79.4814Z" fill="#656D78"/>
<path d="M32.0822 70.3935C28.292 70.3935 25.207 73.4539 25.207 77.2062V95.3751C25.207 99.1338 28.292 102.187 32.0822 102.187C35.8721 102.187 38.9571 99.1338 38.9571 95.3751V77.2062C38.9571 73.4539 35.8721 70.3935 32.0822 70.3935Z" fill="#DA4453"/>
<path d="M43.5395 63.5811C39.7496 63.5811 36.6646 66.6412 36.6646 70.3935V102.187C36.6646 105.946 39.7496 109 43.5395 109C47.3329 109 50.4147 105.946 50.4147 102.187V70.3935C50.4147 66.6412 47.3329 63.5811 43.5395 63.5811Z" fill="#ED5564"/>
<path d="M87.0822 70.3935C83.292 70.3935 80.207 73.4539 80.207 77.2062V95.3751C80.207 99.1338 83.292 102.187 87.0822 102.187C90.8721 102.187 93.9569 99.1338 93.9569 95.3751V77.2062C93.9569 73.4539 90.8721 70.3935 87.0822 70.3935Z" fill="#DA4453"/>
<path d="M75.6247 63.5811C71.8316 63.5811 68.75 66.6412 68.75 70.3935V102.187C68.75 105.946 71.8316 109 75.6247 109C79.4149 109 82.4999 105.946 82.4999 102.187V70.3935C82.4999 66.6412 79.4149 63.5811 75.6247 63.5811Z" fill="#ED5564"/>
<path d="M103.125 84.0184C102.538 84.0184 101.95 84.2445 101.504 84.6837C100.607 85.5719 100.607 87.0124 101.504 87.8971C101.95 88.3429 102.538 88.5624 103.125 88.5624V84.0184Z" fill="#434A54"/>
<path d="M16.0396 84.0184V88.5624C16.6269 88.5624 17.2146 88.3429 17.661 87.8971C18.5571 87.0124 18.5571 85.5719 17.661 84.6837C17.2146 84.2447 16.6272 84.0184 16.0396 84.0184Z" fill="#434A54"/>
</svg>
