<svg width="134" height="134" viewBox="0 0 134 134" fill="none" xmlns="http://www.w3.org/2000/svg">
<path d="M125.52 121.869C125.52 122.419 125.062 122.877 124.513 122.877H9.42168C8.87207 122.877 8.41406 122.419 8.41406 121.869V118.258C8.41406 117.708 8.87207 117.25 9.42168 117.25H124.513C125.062 117.25 125.52 117.708 125.52 118.258V121.869Z" fill="#333E48"/>
<path d="M124.513 117.25H70.7163V122.877H124.513C125.062 122.877 125.52 122.419 125.52 121.869V118.258C125.52 117.695 125.075 117.25 124.513 117.25Z" fill="#00AD68"/>
<path d="M17.4829 24.0258H74.0142V117.237H17.4829V24.0258Z" fill="#D1D3D3"/>
<path d="M17.4829 24.0258H74.0142V36.9285H17.4829V24.0258Z" fill="black"/>
<path d="M24.5493 80.3215H66.9478V91.811H24.5493V80.3215Z" fill="white"/>
<path d="M24.5493 80.3215H66.9478V84.5483H24.5493V80.3215Z" fill="black"/>
<path d="M43.877 80.3215H47.6195V91.811H43.877V80.3215Z" fill="#333E48"/>
<path d="M26.4203 89.9396H65.0631V82.1927H26.4203V89.9396ZM66.9475 93.6953H24.549C23.5152 93.6953 22.6777 92.8578 22.6777 91.824V80.3346C22.6777 79.3008 23.5152 78.4633 24.549 78.4633H66.9475C67.9812 78.4633 68.8188 79.3008 68.8188 80.3346V91.824C68.8188 92.8447 67.9812 93.6953 66.9475 93.6953Z" fill="#0071CE"/>
<path d="M24.5493 61.373H66.9478V72.8625H24.5493V61.373Z" fill="white"/>
<path d="M24.5493 61.373H66.9478V65.5998H24.5493V61.373Z" fill="black"/>
<path d="M43.877 61.373H47.6195V72.8625H43.877V61.373Z" fill="#333E48"/>
<path d="M26.4203 70.9912H65.0631V63.2443H26.4203V70.9912ZM66.9475 74.7468H24.549C23.5152 74.7468 22.6777 73.9093 22.6777 72.8755V61.373C22.6777 60.3392 23.5152 59.5017 24.549 59.5017H66.9475C67.9812 59.5017 68.8188 60.3392 68.8188 61.373V72.8624C68.8188 73.9093 67.9812 74.7468 66.9475 74.7468Z" fill="#0071CE"/>
<path d="M24.5493 42.4246H66.9478V53.9141H24.5493V42.4246Z" fill="white"/>
<path d="M24.5493 42.4246H66.9478V46.6514H24.5493V42.4246Z" fill="black"/>
<path d="M43.877 42.4246H47.6195V53.9141H43.877V42.4246Z" fill="#333E48"/>
<path d="M26.4203 52.0559H65.0631V44.309H26.4203V52.0559ZM66.9475 55.7984H24.549C23.5152 55.7984 22.6777 54.9609 22.6777 53.9271V42.4377C22.6777 41.4039 23.5152 40.5664 24.549 40.5664H66.9475C67.9812 40.5664 68.8188 41.4039 68.8188 42.4377V53.9271C68.8188 54.9609 67.9812 55.7984 66.9475 55.7984Z" fill="#0071CE"/>
<path d="M34.8218 101.128H56.6753V117.25H34.8218V101.128Z" fill="white"/>
<path d="M43.877 101.128H47.6195V117.25H43.877V101.128Z" fill="#333E48"/>
<path d="M58.5463 117.25H54.8037V102.999H36.6928V117.25H32.9502V101.128C32.9502 100.094 33.7877 99.2568 34.8215 99.2568H56.675C57.7088 99.2568 58.5463 100.094 58.5463 101.128V117.25Z" fill="#0071CE"/>
<path d="M75.7807 19.4326H58.1539V13.6617C58.1539 12.2877 57.0285 11.1623 55.6545 11.1623H35.8424C34.4684 11.1623 33.343 12.2877 33.343 13.6617V19.4326H15.7162C14.3422 19.4326 13.2168 20.558 13.2168 21.932V31.681C13.2168 33.0551 14.3422 34.1805 15.7162 34.1805H75.7807C77.1547 34.1805 78.2801 33.0551 78.2801 31.681V21.932C78.2801 20.558 77.1547 19.4326 75.7807 19.4326Z" fill="#FF5959"/>
<path d="M51.794 19.799H48.6403V16.6453C48.6403 15.9518 48.0776 15.4022 47.3972 15.4022H44.0995C43.406 15.4022 42.8563 15.9649 42.8563 16.6453V19.799H39.7026C39.0091 19.799 38.4595 20.3617 38.4595 21.0422V24.3268C38.4595 25.0203 39.0222 25.5699 39.7026 25.5699H42.8563V28.7236C42.8563 29.4172 43.419 29.9668 44.0995 29.9668H47.3841C48.0776 29.9668 48.6272 29.4041 48.6272 28.7236V25.5699H51.781C52.4745 25.5699 53.0241 25.0072 53.0241 24.3268V21.0422C53.0372 20.3617 52.4876 19.799 51.794 19.799Z" fill="white"/>
<path d="M74.0142 74.76H116.439V117.25H74.0142V74.76Z" fill="#D1D3D3"/>
<path d="M81.0938 86.6813H109.359V98.1707H81.0938V86.6813Z" fill="white"/>
<path d="M81.0938 86.6813H109.359V90.908H81.0938V86.6813Z" fill="black"/>
<path d="M93.355 86.6813H97.0976V98.1707H93.355V86.6813Z" fill="#333E48"/>
<path d="M82.9647 96.2994H107.475V88.5525H82.9647V96.2994ZM109.359 100.055H81.0935C80.0597 100.055 79.2222 99.2175 79.2222 98.1837V86.6943C79.2222 85.6605 80.0597 84.823 81.0935 84.823H109.359C110.393 84.823 111.23 85.6605 111.23 86.6943V98.1837C111.23 99.2044 110.393 100.055 109.359 100.055Z" fill="#0071CE"/>
<path d="M74.0142 67.4449H118.729C120.103 67.4449 121.228 68.5703 121.228 69.9444V74.7338C121.228 76.1078 120.103 77.2332 118.729 77.2332H74.0142V67.4449Z" fill="#FF5959"/>
<path d="M78.7382 77.2332V67.4449H74.0142V117.25H78.7382V81.9965H116.439V77.2332H78.7382Z" fill="black"/>
<path d="M107.239 117.25C107.239 112.827 103.654 109.255 99.2436 109.255C94.8205 109.255 91.248 112.84 91.248 117.25H107.239Z" fill="#218649"/>
</svg>
