<svg width="25" height="25" viewBox="0 0 25 25" fill="none" xmlns="http://www.w3.org/2000/svg">
<path d="M7.93379 2.75176L16.3338 2.77728C19.5337 2.78701 22.1258 5.39489 22.1161 8.59488L22.0906 16.9948C22.0859 18.5331 21.4704 20.0065 20.3793 21.0909C19.2883 22.1753 17.8112 22.7819 16.273 22.7772L7.87302 22.7517C4.67303 22.7419 2.08095 20.1341 2.09067 16.9341L2.11619 8.5341C2.12087 6.99586 2.73642 5.52247 3.82743 4.43807C4.91844 3.35367 6.39554 2.74708 7.93379 2.75176ZM7.72772 4.75114C6.77294 4.74824 5.85612 5.12474 5.17894 5.79781C4.50176 6.47089 4.11969 7.38541 4.11679 8.34018L4.09005 17.1401C4.08401 19.1301 5.68911 20.745 7.6791 20.7511L16.4791 20.7778C17.4338 20.7807 18.3507 20.4042 19.0278 19.7311C19.705 19.0581 20.0871 18.1435 20.09 17.1888L20.1167 8.3888C20.1228 6.39881 18.5177 4.78393 16.5277 4.77788L7.72772 4.75114ZM17.3731 6.28046C17.7046 6.28146 18.0222 6.41412 18.2559 6.64926C18.4896 6.88439 18.6203 7.20273 18.6193 7.53425C18.6183 7.86577 18.4856 8.18331 18.2505 8.41702C18.0154 8.65072 17.697 8.78145 17.3655 8.78044C17.034 8.77944 16.7165 8.64678 16.4827 8.41164C16.249 8.17651 16.1183 7.85817 16.1193 7.52665C16.1203 7.19513 16.253 6.87759 16.4881 6.64388C16.7233 6.41018 17.0416 6.27945 17.3731 6.28046ZM12.1186 7.7645C13.4447 7.76853 14.7148 8.29917 15.6496 9.2397C16.5845 10.1802 17.1074 11.4536 17.1034 12.7797C17.0993 14.1057 16.5687 15.3759 15.6282 16.3107C14.6876 17.2456 13.4143 17.7685 12.0882 17.7644C10.7621 17.7604 9.49195 17.2298 8.55712 16.2892C7.6223 15.3487 7.09938 14.0754 7.10341 12.7493C7.10744 11.4232 7.63808 10.153 8.57861 9.21821C9.51914 8.28338 10.7925 7.76047 12.1186 7.7645ZM12.1125 9.76449C11.3169 9.76207 10.5528 10.0758 9.98852 10.6367C9.42421 11.1976 9.10582 11.9597 9.1034 12.7554C9.10098 13.551 9.41473 14.315 9.97563 14.8793C10.5365 15.4437 11.2986 15.762 12.0943 15.7645C12.8899 15.7669 13.6539 15.4531 14.2183 14.8922C14.7826 14.3313 15.101 13.5692 15.1034 12.7736C15.1058 11.9779 14.792 11.2139 14.2311 10.6496C13.6702 10.0853 12.9081 9.7669 12.1125 9.76449Z" fill="white"/>
</svg>
