<svg width="60" height="60" viewBox="0 0 60 60" fill="none" xmlns="http://www.w3.org/2000/svg">
<path d="M33.8891 2.66253C33.1274 2.68151 32.3901 2.92737 31.8273 3.49737C31.7707 3.55456 31.72 3.61257 31.6698 3.67315L31.6478 3.65112C29.5562 6.30776 27.463 9.65229 26.2902 13.3887C24.9781 17.5688 24.7902 22.1485 26.9567 26.8395L24.9682 27.7588C23.2919 24.129 22.8815 20.503 23.2655 17.0983C22.2723 17.683 21.3422 18.4082 20.4895 19.2444C17.8683 15.8226 14.6327 12.6124 11.5247 10.3382C11.3602 10.1741 11.1736 10.0271 10.9607 9.90577C10.5648 9.68053 10.1427 9.57061 9.71568 9.55069C9.67115 9.54858 9.62837 9.54694 9.58384 9.54717C9.53931 9.54717 9.49314 9.54905 9.44849 9.55069C8.82388 9.57448 8.1981 9.77686 7.63935 10.0854C6.61747 10.6498 5.70048 11.5819 5.00263 12.7733C4.3049 13.9649 3.94372 15.2179 3.95896 16.3804C3.97443 17.5431 4.41552 18.7312 5.4715 19.3323C5.51462 19.3567 5.55974 19.3763 5.60345 19.398L5.58869 19.4273C8.78767 21.3995 13.0142 24.0416 15.7402 27.3522C14.9688 30.0463 14.8218 32.8289 15.4326 35.2513C17.2259 42.3654 22.748 48.8216 28.6783 52.9064C31.6436 54.9487 34.702 56.3969 37.3759 57.0666C40.0497 57.7361 42.283 57.5993 43.693 56.7551C46.8749 54.8508 49.0049 51.4071 50.2921 47.318C49.4924 47.7879 48.6428 48.1758 47.7579 48.4751C43.5653 49.8933 38.605 49.4984 34.4426 47.296C30.2801 45.0935 26.9303 41.0002 26.1774 35.1999L28.3488 34.918C29.0136 40.038 31.8536 43.446 35.468 45.3585C39.0825 47.271 43.4848 47.6062 47.0549 46.3985C50.625 45.191 53.3443 42.5735 53.9728 38.3236C54.4924 34.8098 53.5199 30.0587 50.0067 24.1001C47.7638 24.3556 45.4751 24.8464 43.3709 25.4551L42.7629 23.3528C44.2547 22.9213 45.8323 22.5477 47.4358 22.2653C47.744 22.2911 48.0601 22.2681 48.3771 22.1809C48.4967 22.1481 48.611 22.1071 48.7213 22.0602C48.7251 22.0596 48.7286 22.0571 48.7323 22.0567C48.7317 22.0558 48.7328 22.0538 48.7323 22.053C49.6958 21.6369 50.307 20.7086 50.5963 19.7055C50.9197 18.584 50.9125 17.2769 50.5635 15.9408C50.2143 14.6049 49.5836 13.4635 48.7506 12.6525C48.126 12.044 47.3193 11.5973 46.4619 11.5463C46.1999 11.531 45.9349 11.5539 45.667 11.6196L45.6561 11.5721C43.7769 12.2564 41.7031 13.1842 39.6796 14.3992C38.6311 15.7326 37.8088 17.0339 37.2772 18.3103C36.4514 20.2931 36.2797 22.1916 36.9915 24.3382L34.915 25.0303C34.0408 22.3936 34.2699 19.8351 35.2558 17.4682C36.1259 15.379 37.5679 13.4142 39.317 11.4476L39.2987 11.4292C39.3716 11.3698 39.4431 11.3078 39.5111 11.2389C40.3649 10.3744 40.4767 9.11663 40.1959 7.98342C39.9152 6.85022 39.2547 5.72475 38.2842 4.74237L38.277 4.73862C37.3078 3.75917 36.1937 3.08686 35.069 2.80128C34.7872 2.72979 34.4985 2.68503 34.2083 2.66944C34.154 2.66663 34.0979 2.66299 34.0436 2.66241C33.9926 2.66159 33.9404 2.661 33.8897 2.66241L33.8891 2.66253ZM33.966 4.84503C34.0082 4.84503 34.0545 4.84503 34.1015 4.84854C34.2268 4.85839 34.3686 4.88464 34.5299 4.92553C35.1756 5.0896 36.0022 5.55038 36.7236 6.28069C37.4448 7.01077 37.9037 7.84925 38.0676 8.51077C38.2314 9.17253 38.1097 9.53944 37.9504 9.70104C37.7908 9.86276 37.45 9.97878 36.8043 9.81471C36.1583 9.65065 35.3318 9.18635 34.6105 8.45604C33.8892 7.72596 33.4304 6.88749 33.2664 6.22596C33.1026 5.56421 33.2242 5.20092 33.3836 5.03932C33.4885 4.93327 33.6701 4.8462 33.966 4.84526V4.84503ZM9.57271 11.7333C9.70044 11.7368 9.80263 11.7682 9.87658 11.8103C10.074 11.9228 10.2744 12.2209 10.2832 12.8873C10.292 13.5533 10.0585 14.4696 9.53978 15.3552C9.02111 16.2412 8.33111 16.9044 7.73439 17.234C7.13767 17.5636 6.75259 17.5404 6.55513 17.4282C6.35779 17.3157 6.15751 17.0175 6.14872 16.3512C6.13982 15.6851 6.37326 14.7651 6.89204 13.8794C7.41072 12.9938 8.10072 12.334 8.69744 12.0044C8.99568 11.8396 9.24154 11.7625 9.43689 11.7407C9.48587 11.7353 9.52993 11.7323 9.57247 11.7334L9.57271 11.7333ZM22.456 11.8835C20.9325 11.8923 19.357 12.5265 18.4716 13.5388C19.2741 14.3759 20.0501 15.2316 20.7895 16.1024C21.709 15.4246 22.6952 14.845 23.7415 14.3922C23.8751 13.8308 24.0284 13.2773 24.1991 12.7333C24.2497 12.5721 24.3031 12.4133 24.3566 12.2535C23.7742 11.998 23.1205 11.8799 22.4558 11.8837L22.456 11.8835ZM46.2597 13.7328C46.2915 13.7304 46.3265 13.7304 46.3622 13.7328C46.5762 13.7492 46.8612 13.875 47.2192 14.2238C47.6964 14.6885 48.1827 15.5011 48.4423 16.4942C48.7018 17.4872 48.6788 18.443 48.4899 19.0981C48.3012 19.7529 48.0131 20.0119 47.7942 20.0719C47.5751 20.1321 47.2241 20.0608 46.7468 19.5961C46.2696 19.1311 45.7832 18.3185 45.5237 17.3255C45.264 16.3324 45.287 15.3767 45.4759 14.7216C45.6648 14.0667 45.9529 13.8078 46.1718 13.7478C46.1992 13.74 46.2278 13.7353 46.2597 13.733V13.7328Z" fill="#F4371D"/>
</svg>
