<svg width="188" height="257" viewBox="0 0 188 257" fill="none" xmlns="http://www.w3.org/2000/svg">
<path d="M184.193 48.7422C181.959 44.8672 178.773 41.5272 175.675 39.685C173.607 38.4407 171.661 37.878 169.997 37.878C168.666 37.886 167.469 38.1867 166.11 39.0034C145.755 51.4483 128.963 66.9757 116.645 84.2429C104.318 101.506 96.4578 120.492 93.8426 139.919C93.4345 142.926 90.6693 145.03 87.6656 144.626C84.6544 144.226 82.5507 141.46 82.9508 138.453C85.8315 117.073 94.453 96.4223 107.698 77.856C114.62 68.1724 122.809 59.0519 132.105 50.6758C128.65 43.6389 130.282 36.3681 133.793 29.6565C135.635 26.1343 137.588 22.9092 138.955 19.6957C138.896 19.5336 138.753 19.26 138.507 18.9117C137.984 18.1587 136.982 17.1242 135.678 16.1103C133.063 14.0583 129.26 12.065 125.856 10.9241C123.601 10.1516 121.49 9.7711 120.309 9.79068L119.972 9.7947C119.782 10.1551 119.557 10.5948 119.311 11.0943C118.808 12.1202 118.19 13.3962 117.492 14.7706C116.062 17.5248 114.311 20.6941 111.889 23.5111C110.269 25.3813 108.315 27.1683 105.689 28.3368C104.203 28.9984 102.475 29.4226 100.677 29.4105C91.4127 29.4502 86.8093 20.7809 85.7195 12.8014C85.5298 11.3829 85.4465 10.1466 85.4465 9.08895C85.4465 8.75967 85.4465 8.47054 85.4465 8.20953C85.4505 7.32609 85.4028 6.87433 85.3672 6.73579C85.316 6.58872 85.3752 6.65648 85.1734 6.36736C85.0303 6.17712 84.7412 5.86039 84.2182 5.42821C83.5762 4.87355 82.2134 4.18436 80.3672 3.74064C78.5326 3.28888 76.2582 3.05146 73.9206 3.05497C71.8204 3.05497 69.6656 3.23768 67.716 3.56596C56.9787 5.34488 59.1542 12.1559 59.1542 20.9878C59.1542 23.1351 59.0668 25.5595 58.7892 28.2741C58.4921 31.3686 57.704 34.2529 56.5551 36.9117C55.4136 39.566 53.9163 41.9749 52.2086 44.2217C48.7969 48.7071 44.589 52.5506 40.1121 56.6079C31.1497 64.7099 21.0308 73.5894 12.8128 88.4357C-6.68853 123.726 -2.91284 165.19 17.2627 199.24C28.6931 218.584 44.9258 235.645 63.6632 246.049C76.1754 252.99 89.7497 257 103.946 257C109.822 257 115.817 256.314 121.911 254.845C128.333 253.078 134.994 249.123 141.329 243.248C147.696 237.364 153.709 229.594 158.851 220.513C169.153 202.35 175.928 178.962 175.904 155.102C175.904 136.71 171.914 118.077 162.607 101.055C161.335 102.485 160.119 103.971 158.978 105.524C156.054 109.514 153.593 113.924 151.822 118.984C150.816 121.852 147.68 123.362 144.819 122.352C141.955 121.353 140.449 118.223 141.451 115.354C143.607 109.169 146.634 103.761 150.126 99.0184C153.617 94.2719 157.563 90.175 161.605 86.5378C169.684 79.2675 178.155 73.7245 184.304 68.6372C185.54 67.6031 186.341 66.4818 186.911 65.1586C187.466 63.8315 187.759 62.2744 187.759 60.511C187.791 56.9517 186.475 52.6093 184.193 48.7422Z" fill="#F4371D"/>
<path d="M96.9291 0.0246194L96.9209 0L96.925 0.0164129L96.9291 0.0246194Z" fill="#F4371D"/>
<path d="M10.9785 37.3514C12.1983 39.8275 13.5375 42.7202 14.7939 45.8976C16.6596 50.6049 18.3673 55.9176 19.1403 61.4612C22.5275 57.8632 25.8795 54.6898 29.0177 51.8367C33.3486 47.8904 37.2432 44.4791 40.2906 41.2616C38.9197 39.9936 37.7622 38.5751 36.665 37.0341C34.1251 33.4447 31.8869 29.2011 29.7551 25.3261C28.4912 23.004 27.2784 20.8567 26.1772 19.137C25.8444 19.0421 25.2541 18.9392 24.4735 18.9432C23.2493 18.9392 21.6049 19.1847 19.7547 19.8267C17.9085 20.4687 15.856 21.5107 13.7483 23.0954C11.0618 25.1042 9.52838 26.8635 8.71622 28.1551C7.9161 29.4586 7.80919 30.2472 7.80518 30.6985C7.80518 31.0629 7.87645 31.2692 7.96379 31.4434C8.67656 32.8343 9.7658 34.8868 10.9785 37.3514Z" fill="#F4371D"/>
<path d="M187.752 32.1258L187.68 32.0618L187.688 32.074L187.752 32.1258Z" fill="#F4371D"/>
</svg>
