<svg width="304" height="396" viewBox="0 0 304 396" fill="none" xmlns="http://www.w3.org/2000/svg">
<path d="M245.608 118.4C245.233 115.979 244.001 113.773 242.138 112.183C240.274 110.593 237.901 109.724 235.452 109.735H216.332C213.95 109.739 211.643 110.568 209.803 112.081C207.963 113.594 206.704 115.698 206.24 118.034L205.122 123.724C204.63 126.272 205.115 128.912 206.481 131.118C207.847 133.324 209.994 134.934 212.494 135.629L217.02 136.869C217.821 137.091 218.502 137.619 218.918 138.339C219.333 139.058 219.449 139.912 219.242 140.717L213.033 164.427C212.889 164.961 212.609 165.449 212.219 165.843C211.83 166.236 211.345 166.522 210.812 166.672C204.848 168.443 198.278 171.49 191.284 175.727C186.291 178.75 180.315 179.705 174.628 178.387C167.203 176.723 159.609 175.934 152 176.034C144.391 175.936 136.797 176.726 129.371 178.386C123.685 179.704 117.709 178.75 112.716 175.727C105.722 171.49 99.1522 168.443 93.188 166.672C92.655 166.522 92.17 166.236 91.7807 165.843C91.3914 165.449 91.1111 164.961 90.9674 164.426L84.7584 140.716C84.5505 139.912 84.6668 139.058 85.0822 138.338C85.4977 137.619 86.1791 137.091 86.9798 136.869L91.5054 135.629C94.0053 134.934 96.1519 133.323 97.5182 131.118C98.8844 128.912 99.3701 126.272 98.8785 123.725L97.7595 118.034C97.2957 115.698 96.0368 113.594 94.197 112.081C92.3573 110.568 90.0501 109.739 87.668 109.735H68.5485C66.0986 109.724 63.7262 110.592 61.8625 112.183C59.9987 113.773 58.7674 115.979 58.3922 118.399C56.6336 129.486 53.8975 151.735 55.3231 176.176C55.5695 180.593 56.9224 184.878 59.2574 188.636C61.5924 192.394 64.8346 195.505 68.686 197.682L105.595 218.627C107.281 219.583 108.707 220.936 109.749 222.569C110.792 224.202 111.419 226.065 111.577 227.996L112.94 244.622C113.414 250.34 112.78 256.096 111.074 261.575L77.4096 369.991C76.8429 371.816 76.713 373.749 77.0304 375.633C77.3479 377.518 78.1037 379.301 79.237 380.84C80.3704 382.378 81.8494 383.629 83.5549 384.491C85.2604 385.353 87.1446 385.802 89.0556 385.802H116.523C120.126 385.791 123.615 384.543 126.409 382.268C129.202 379.993 131.129 376.828 131.869 373.302L150.273 284.186C150.339 283.753 150.564 283.361 150.903 283.085C151.242 282.808 151.672 282.667 152.109 282.69H152.111C152.549 282.668 152.979 282.809 153.318 283.086C153.657 283.364 153.881 283.757 153.947 284.19L172.146 373.27C172.878 376.803 174.804 379.977 177.599 382.259C180.394 384.541 183.89 385.792 187.498 385.802H214.945C216.856 385.802 218.74 385.353 220.445 384.491C222.151 383.629 223.63 382.378 224.763 380.84C225.896 379.301 226.652 377.518 226.97 375.633C227.287 373.749 227.157 371.816 226.591 369.991L192.926 261.575C191.22 256.096 190.586 250.34 191.06 244.622L192.423 227.996C192.581 226.065 193.208 224.202 194.251 222.569C195.293 220.936 196.719 219.583 198.405 218.627L235.314 197.682C239.165 195.505 242.408 192.394 244.743 188.636C247.078 184.878 248.43 180.594 248.677 176.176C250.103 151.735 247.366 129.486 245.608 118.4ZM241.564 175.761C241.384 178.991 240.396 182.123 238.689 184.871C236.983 187.619 234.613 189.893 231.798 191.486L194.889 212.431C192.193 213.959 189.912 216.123 188.245 218.734C186.578 221.346 185.574 224.325 185.323 227.413L183.959 244.04C183.41 250.667 184.144 257.338 186.122 263.688L219.785 372.104C220.021 372.863 220.075 373.666 219.943 374.449C219.811 375.233 219.497 375.974 219.026 376.614C218.555 377.253 217.94 377.773 217.231 378.132C216.522 378.49 215.739 378.677 214.944 378.677H187.498C185.53 378.671 183.624 377.989 182.1 376.745C180.576 375.5 179.526 373.77 179.127 371.843L160.928 282.764C160.546 280.717 159.452 278.871 157.84 277.553C156.228 276.236 154.201 275.531 152.119 275.565H152.108C150.028 275.529 148.002 276.23 146.389 277.545C144.776 278.859 143.68 280.701 143.295 282.745L124.891 371.861C124.488 373.784 123.437 375.51 121.914 376.75C120.391 377.991 118.488 378.671 116.523 378.677H89.0556C88.2612 378.677 87.4779 378.491 86.7689 378.132C86.06 377.774 85.4451 377.254 84.974 376.614C84.5029 375.975 84.1888 375.233 84.0568 374.45C83.9249 373.667 83.9789 372.863 84.2146 372.105L117.879 263.688C119.856 257.339 120.59 250.668 120.041 244.04L118.678 227.414C118.426 224.326 117.422 221.346 115.755 218.735C114.088 216.123 111.807 213.959 109.111 212.431L72.2021 191.486C69.3869 189.893 67.0172 187.618 65.3108 184.871C63.6044 182.123 62.616 178.99 62.4366 175.761C61.049 151.989 63.7162 130.318 65.4291 119.515C65.545 118.772 65.9236 118.096 66.496 117.609C67.0684 117.121 67.7967 116.856 68.5485 116.86H87.6679C88.3997 116.861 89.1085 117.116 89.6737 117.581C90.239 118.045 90.6257 118.692 90.7682 119.41L91.8873 125.1C92.0384 125.882 91.8892 126.693 91.4694 127.371C91.0496 128.049 90.39 128.544 89.6219 128.757L85.0969 129.997C82.4908 130.721 80.2729 132.438 78.9204 134.781C77.5679 137.123 77.1889 139.902 77.865 142.521L84.0739 166.231C84.2747 166.99 84.5636 167.723 84.9348 168.415C83.8942 170.764 83.3807 173.312 83.4304 175.881C83.4337 176.847 83.8196 177.771 84.5035 178.453C85.1874 179.135 86.1135 179.517 87.0791 179.518H87.091C87.5702 179.516 88.0444 179.42 88.4866 179.235C88.9287 179.051 89.3301 178.781 89.6679 178.441C90.0056 178.101 90.273 177.697 90.4549 177.254C90.6367 176.811 90.7294 176.336 90.7277 175.857C90.7223 175.044 90.7983 174.232 90.9547 173.434C91.0231 173.456 91.0895 173.482 91.1585 173.502C96.464 175.077 102.641 177.954 109.023 181.82C115.594 185.805 123.462 187.066 130.949 185.335C137.85 183.79 144.909 183.06 151.98 183.158L152.018 183.135L152.019 183.158C159.09 183.062 166.148 183.792 173.049 185.335C180.537 187.065 188.404 185.804 194.976 181.82C201.358 177.954 207.535 175.077 212.84 173.502C213.262 173.376 213.675 173.224 214.077 173.046C214.29 173.967 214.392 174.911 214.38 175.857C214.378 176.336 214.471 176.812 214.654 177.255C214.836 177.699 215.104 178.102 215.442 178.442C215.781 178.782 216.183 179.052 216.626 179.237C217.068 179.421 217.543 179.517 218.023 179.518H218.029C218.994 179.518 219.921 179.135 220.604 178.453C221.288 177.771 221.674 176.847 221.677 175.881C221.757 172.874 221.036 169.901 219.589 167.264C219.72 166.926 219.832 166.581 219.926 166.231L226.135 142.521C226.811 139.902 226.432 137.123 225.079 134.781C223.727 132.438 221.509 130.721 218.903 129.997L214.377 128.757C213.609 128.544 212.95 128.049 212.53 127.371C212.11 126.693 211.961 125.882 212.112 125.1L213.231 119.41C213.374 118.692 213.76 118.046 214.326 117.581C214.891 117.116 215.6 116.861 216.332 116.86H235.452C236.203 116.856 236.932 117.121 237.504 117.609C238.077 118.096 238.455 118.773 238.571 119.516C240.284 130.318 242.951 151.989 241.564 175.761Z" fill="#388E3C"/>
<path d="M152.381 171.102C168.117 171.102 180.92 158.956 180.92 144.026C180.92 129.096 168.117 116.95 152.381 116.95C136.645 116.95 123.842 129.096 123.842 144.026C123.842 158.956 136.645 171.102 152.381 171.102ZM152.381 124.075C164.189 124.075 173.795 133.025 173.795 144.026C173.795 155.027 164.189 163.977 152.381 163.977C140.573 163.977 130.967 155.027 130.967 144.026C130.967 133.025 140.573 124.075 152.381 124.075Z" fill="#388E3C"/>
<path d="M152.381 159.436C158.879 159.436 161.388 155.503 162.357 152.465C162.485 152.068 162.518 151.645 162.452 151.233C162.386 150.82 162.223 150.429 161.977 150.091C161.732 149.753 161.409 149.478 161.037 149.288C160.665 149.098 160.253 148.999 159.835 148.999H144.927C144.509 148.999 144.097 149.098 143.725 149.288C143.353 149.478 143.031 149.753 142.785 150.091C142.539 150.429 142.376 150.82 142.311 151.233C142.245 151.645 142.277 152.068 142.405 152.465C143.374 155.503 145.883 159.436 152.381 159.436Z" fill="#388E3C"/>
<path d="M179.447 112.885C180.891 113.404 182.203 114.236 183.289 115.321C184.374 116.407 185.206 117.718 185.725 119.163C185.913 119.627 186.235 120.025 186.651 120.305C187.066 120.586 187.556 120.735 188.057 120.735C188.558 120.735 189.048 120.586 189.464 120.305C189.879 120.025 190.202 119.627 190.39 119.163C190.909 117.718 191.741 116.407 192.826 115.321C193.911 114.236 195.223 113.404 196.667 112.885C197.132 112.697 197.53 112.375 197.81 111.959C198.09 111.544 198.24 111.054 198.24 110.553C198.24 110.052 198.09 109.562 197.81 109.146C197.53 108.731 197.132 108.408 196.667 108.22C195.223 107.701 193.911 106.869 192.826 105.784C191.741 104.699 190.909 103.387 190.39 101.943C190.202 101.478 189.879 101.08 189.464 100.8C189.048 100.52 188.558 100.37 188.057 100.37C187.556 100.37 187.066 100.52 186.651 100.8C186.235 101.08 185.913 101.478 185.725 101.943C185.206 103.387 184.374 104.699 183.289 105.784C182.203 106.869 180.891 107.701 179.447 108.22C178.982 108.408 178.585 108.731 178.305 109.146C178.024 109.562 177.875 110.052 177.875 110.553C177.875 111.054 178.024 111.544 178.305 111.959C178.585 112.375 178.982 112.697 179.447 112.885Z" fill="#388E3C"/>
<path d="M165.649 196.073C159.183 196.073 154.931 202.637 153.225 205.878C153.147 206.028 153.029 206.152 152.884 206.238C152.739 206.324 152.573 206.369 152.405 206.366C152.236 206.363 152.072 206.313 151.93 206.222C151.788 206.131 151.674 206.003 151.601 205.851C150.018 202.6 145.984 196.073 139.113 196.073C131.791 196.073 125.855 201.815 125.855 208.898C125.856 209.696 125.934 210.493 126.087 211.276L126.083 211.277C126.09 211.309 126.166 211.657 126.2 211.8C128.856 223.154 141.995 233.43 148.59 237.972C149.705 238.741 151.027 239.153 152.381 239.153C153.735 239.153 155.058 238.741 156.172 237.972C162.768 233.43 175.907 223.154 178.562 211.8C178.596 211.657 178.673 211.309 178.679 211.277L178.676 211.276C178.829 210.493 178.906 209.696 178.907 208.898C178.907 201.815 172.971 196.073 165.649 196.073Z" fill="#F4371D"/>
<path d="M106.88 105.58V31.7352H20.8098V105.583L21.0886 105.861L32.1145 116.932L63.8449 148.791L107.171 105.58H106.88ZM91.23 82.1192H71.6683V101.629H56.0214V82.1192H36.4598V66.5138H56.0214V47.0039H71.6683V66.5138H91.23V82.1192Z" fill="#388E3C"/>
<path d="M45.3025 82.0225H56.4743V93.0461L32.4868 117.016L11.1034 138.386L0 127.291L45.3025 82.0225ZM138.906 0V54.9135H123.204V26.373L83.209 66.3378H72.177V55.1743L111.687 15.6909H83.9486V0H138.906Z" fill="#54FF65"/>
</svg>
