<svg width="60" height="60" viewBox="0 0 60 60" fill="none" xmlns="http://www.w3.org/2000/svg">
<path d="M55.9154 12.4915C49.5397 1.08211 32.4945 3.79207 28.7043 11.3746C27.9993 12.7863 25.2472 12.2681 23.6854 12.2681C21.12 12.2681 21.12 9.36773 21.12 6.91406C21.12 6.02238 21.12 0 21.12 0H13.5358C13.5358 0 13.5358 9.70277 13.5358 11.5997C13.5358 16.9519 17.7747 19.4531 21.3434 19.4531C22.0263 19.4531 21.759 19.4293 22.6819 19.4147C23.1836 19.4055 23.7092 19.4019 24.2438 19.4055C27.8454 19.4276 28.0341 21.6357 28.0341 24.3128C28.0341 30.4505 20.8984 37.9175 11.9758 39.7028C3.05298 41.4862 1.04614 47.0636 1.04614 55.0928V60H7.96021V55.5395C7.96021 48.6236 11.4832 47.3876 13.5358 47.2869C17.9963 47.0636 19.9463 52.5531 33.388 50.8556C54.577 48.1787 64.3915 27.6581 55.9154 12.4915Z" fill="#FFC554"/>
</svg>
