<svg width="72" height="72" viewBox="0 0 72 72" fill="none" xmlns="http://www.w3.org/2000/svg">
<path d="M48.8505 10.5983C49.4462 9.94639 63.4546 10.8905 62.8589 11.5401L47.8075 27.9964C47.666 28.1513 47.4954 28.2769 47.3054 28.3658C47.1154 28.4548 46.9097 28.5054 46.7001 28.5148C46.4905 28.5242 46.2811 28.4922 46.0838 28.4206C45.8866 28.349 45.7054 28.2392 45.5507 28.0976L39.8097 22.8466C39.1601 22.2532 39.1152 21.2417 39.7108 20.5921L48.8505 10.5983Z" fill="#FF4893"/>
<path d="M47.1983 30.0195C48.2683 30.9973 48.3425 32.6606 47.3647 33.7306L22.5981 60.8101C21.6181 61.8801 19.957 61.9543 18.8847 60.9765L9.43939 52.3358C8.36718 51.3558 8.293 49.6946 9.27305 48.6247L34.0396 21.5452C35.0174 20.473 36.6808 20.3988 37.7507 21.3788L47.1983 30.0195Z" fill="#8B87C1"/>
<path d="M20.6579 63.2373C19.6075 63.2373 18.6012 62.8473 17.8245 62.1388L8.37761 53.4968C7.96914 53.1256 7.63839 52.677 7.40449 52.1771C7.17059 51.6772 7.0382 51.1358 7.01498 50.5843C6.9887 50.0329 7.07224 49.4818 7.26075 48.9629C7.44925 48.4441 7.73895 47.9679 8.11304 47.5619L32.8786 20.4833C33.2723 20.0529 33.7513 19.7091 34.285 19.4738C34.8187 19.2385 35.3955 19.1168 35.9788 19.1164C37.031 19.1164 38.0378 19.5077 38.8138 20.2187L48.2605 28.8585C48.6686 29.2297 48.9991 29.6782 49.2327 30.178C49.4663 30.6778 49.5985 31.219 49.6216 31.7703C49.6478 32.3214 49.5644 32.8722 49.3764 33.3909C49.1884 33.9097 48.8994 34.3859 48.5262 34.7923L23.7595 61.8722C23.365 62.3019 22.8857 62.6451 22.3519 62.8801C21.818 63.1151 21.2412 63.2367 20.6579 63.2373ZM35.9788 22.2631C35.6794 22.2631 35.4034 22.3847 35.2024 22.6052L10.4344 49.6866C10.3406 49.7882 10.2679 49.9075 10.2205 50.0374C10.1732 50.1674 10.1521 50.3055 10.1586 50.4436C10.1645 50.582 10.1978 50.7179 10.2566 50.8433C10.3154 50.9688 10.3985 51.0813 10.5011 51.1744L19.9467 59.8152C20.1411 59.9924 20.3947 60.0906 20.6577 60.0904C20.8045 60.0911 20.9499 60.0609 21.0843 60.0019C21.2187 59.9428 21.3392 59.856 21.4379 59.7474L46.2035 32.6687C46.297 32.5668 46.3693 32.4473 46.4163 32.3172C46.4634 32.1871 46.4842 32.049 46.4775 31.9108C46.4719 31.7726 46.4388 31.637 46.3803 31.5117C46.3218 31.3864 46.239 31.274 46.1368 31.1809L36.6887 22.5401C36.4953 22.3618 36.2419 22.2629 35.9788 22.2631Z" fill="#4F46A3"/>
<path d="M46.6284 30.0898C45.8365 30.0902 45.0732 29.7938 44.4891 29.259L38.7477 24.0077C38.4398 23.7276 38.1906 23.3893 38.0144 23.0122C37.8382 22.6352 37.7386 22.2269 37.7214 21.8111C37.7017 21.3948 37.7649 20.9787 37.9073 20.5869C38.0496 20.1952 38.2684 19.8356 38.5508 19.5291L47.6891 9.53664C48.22 8.9558 48.9364 8.80542 51.1721 8.80542C53.1095 8.80542 56.009 8.95198 58.5585 9.17878C59.8469 9.29342 60.9515 9.42065 61.7528 9.54698C63.004 9.74411 63.9204 9.95271 64.3129 10.8449C64.4398 11.1349 64.4795 11.4557 64.4273 11.768C64.375 12.0803 64.2331 12.3706 64.0186 12.6036L48.9683 29.0585C48.6711 29.3832 48.3095 29.6425 47.9067 29.82C47.5039 29.9976 47.0686 30.0894 46.6284 30.0898ZM49.7011 11.9998L40.8721 21.654C40.8724 21.6542 40.8715 21.6852 40.8719 21.6857L46.6284 26.9431C46.6318 26.9434 46.6352 26.9428 46.6383 26.9413C46.6414 26.9399 46.6441 26.9377 46.6461 26.935L59.8741 12.4723C57.466 12.2053 53.7351 11.9521 51.1723 11.9521C50.3966 11.9519 49.9475 11.9773 49.7011 11.9998ZM30.0606 47.2041C29.7554 47.204 29.4568 47.1151 29.2013 46.9483C28.9457 46.7815 28.7441 46.544 28.6211 46.2648C28.4981 45.9855 28.459 45.6764 28.5085 45.3753C28.558 45.0742 28.6941 44.7939 28.9 44.5687L40.7323 31.63C40.8718 31.4775 41.0399 31.354 41.2271 31.2665C41.4143 31.179 41.6169 31.1292 41.8233 31.12C42.0298 31.1108 42.236 31.1424 42.4302 31.2129C42.6245 31.2834 42.8029 31.3914 42.9554 31.5309C43.1079 31.6703 43.2315 31.8385 43.319 32.0257C43.4065 32.2128 43.4563 32.4154 43.4655 32.6219C43.4748 32.8283 43.4432 33.0345 43.3728 33.2288C43.3023 33.423 43.1942 33.6015 43.0548 33.754L31.2222 46.6925C31.0749 46.8539 30.8955 46.9829 30.6954 47.0709C30.4954 47.159 30.2791 47.2044 30.0606 47.2041ZM25.4098 52.2909C25.1047 52.2908 24.8061 52.202 24.5505 52.0353C24.295 51.8686 24.0934 51.6312 23.9703 51.352C23.8472 51.0727 23.808 50.7638 23.8574 50.4626C23.9068 50.1615 24.0427 49.8813 24.2486 49.656L25.0578 48.7704C25.3393 48.4623 25.7316 48.2787 26.1485 48.2599C26.5653 48.2411 26.9726 48.3886 27.2807 48.6701C27.5888 48.9516 27.7724 49.3439 27.7913 49.7607C27.8101 50.1776 27.6626 50.5849 27.3812 50.893L26.5719 51.7786C26.4246 51.9403 26.2451 52.0693 26.045 52.1576C25.8449 52.2458 25.6285 52.2912 25.4098 52.2909Z" fill="#4F46A3"/>
</svg>
