<svg width="337" height="388" viewBox="0 0 337 388" fill="none" xmlns="http://www.w3.org/2000/svg">
<path d="M73.0848 67.2572C18.9548 66.8523 -15.2909 111.78 6.80308 160.091L165.879 316.393L259.779 257.662L168.089 136.409C176.154 136.645 127.215 67.6622 73.0848 67.2572Z" fill="url(#paint0_linear_273_851)"/>
<path d="M330.869 159.144C314.298 206.508 225.779 317.008 166.984 316.393C108.188 315.778 6.41235 162.301 6.41235 159.144C50.6002 207.455 105.69 222.767 167.374 135.461C196.824 93.7788 219.294 66.3099 259.063 66.3099C325.345 66.3098 347.439 111.78 330.869 159.144Z" fill="url(#paint1_linear_273_851)"/>
<ellipse cx="169.193" cy="33.155" rx="38.6644" ry="33.155" fill="#3A602F"/>
<path d="M31.8693 341.4H45.4593C47.7193 341.4 49.8093 341.71 51.7293 342.33C53.6693 342.95 55.2293 343.97 56.4093 345.39C57.6093 346.79 58.2093 348.69 58.2093 351.09C58.2093 352.67 57.9093 354.08 57.3093 355.32C56.7293 356.56 55.9493 357.58 54.9693 358.38C54.0093 359.16 52.9593 359.68 51.8193 359.94C52.8193 360.06 53.7893 360.35 54.7293 360.81C55.6893 361.25 56.5493 361.87 57.3093 362.67C58.0893 363.45 58.6993 364.43 59.1393 365.61C59.5993 366.77 59.8293 368.15 59.8293 369.75C59.8293 371.97 59.3293 373.93 58.3293 375.63C57.3493 377.31 55.9093 378.63 54.0093 379.59C52.1293 380.53 49.8193 381 47.0793 381H31.8693V341.4ZM40.8393 373.83H44.9193C46.1993 373.83 47.2393 373.64 48.0393 373.26C48.8593 372.86 49.4593 372.3 49.8393 371.58C50.2193 370.84 50.4093 369.96 50.4093 368.94C50.4093 367.34 49.9093 366.17 48.9093 365.43C47.9293 364.67 46.5493 364.29 44.7693 364.29H40.8393V373.83ZM40.8393 357.27H44.4693C45.5293 357.27 46.4093 357.08 47.1093 356.7C47.8293 356.32 48.3693 355.79 48.7293 355.11C49.1093 354.41 49.2993 353.61 49.2993 352.71C49.2993 351.09 48.8393 350 47.9193 349.44C46.9993 348.86 45.7393 348.57 44.1393 348.57H40.8393V357.27ZM66.6749 381V356.37H75.7949V381H66.6749ZM71.3549 351.3C69.9149 351.3 68.6949 350.8 67.6949 349.8C66.6949 348.78 66.1949 347.57 66.1949 346.17C66.1949 344.77 66.6949 343.56 67.6949 342.54C68.7149 341.5 69.9349 340.98 71.3549 340.98C72.2949 340.98 73.1549 341.22 73.9349 341.7C74.7149 342.16 75.3449 342.78 75.8249 343.56C76.3049 344.34 76.5449 345.21 76.5449 346.17C76.5449 347.57 76.0349 348.78 75.0149 349.8C73.9949 350.8 72.7749 351.3 71.3549 351.3ZM94.318 355.65C95.938 355.65 97.418 355.79 98.758 356.07C100.098 356.33 101.218 356.63 102.118 356.97C103.038 357.31 103.628 357.59 103.888 357.81L100.918 363.18C100.538 362.9 99.828 362.54 98.788 362.1C97.768 361.66 96.628 361.44 95.368 361.44C94.408 361.44 93.598 361.59 92.938 361.89C92.278 362.17 91.948 362.62 91.948 363.24C91.948 363.86 92.308 364.36 93.028 364.74C93.768 365.1 94.828 365.42 96.208 365.7C97.408 365.94 98.628 366.32 99.868 366.84C101.108 367.36 102.138 368.13 102.958 369.15C103.798 370.15 104.218 371.49 104.218 373.17C104.218 374.89 103.848 376.31 103.108 377.43C102.368 378.55 101.388 379.42 100.168 380.04C98.948 380.66 97.628 381.09 96.208 381.33C94.788 381.59 93.408 381.72 92.068 381.72C90.188 381.72 88.548 381.55 87.148 381.21C85.768 380.87 84.648 380.48 83.788 380.04C82.928 379.6 82.328 379.25 81.988 378.99L84.928 372.99C85.448 373.43 86.298 373.93 87.478 374.49C88.658 375.03 89.908 375.3 91.228 375.3C92.508 375.3 93.498 375.11 94.198 374.73C94.898 374.35 95.248 373.85 95.248 373.23C95.248 372.73 95.078 372.33 94.738 372.03C94.398 371.73 93.918 371.47 93.298 371.25C92.678 371.03 91.928 370.83 91.048 370.65C90.248 370.49 89.398 370.24 88.498 369.9C87.598 369.56 86.748 369.1 85.948 368.52C85.148 367.92 84.498 367.17 83.998 366.27C83.498 365.37 83.248 364.28 83.248 363C83.248 361.36 83.778 360 84.838 358.92C85.898 357.84 87.268 357.03 88.948 356.49C90.628 355.93 92.418 355.65 94.318 355.65ZM129.369 381V377.01C129.189 377.41 128.729 377.99 127.989 378.75C127.269 379.51 126.309 380.2 125.109 380.82C123.909 381.42 122.509 381.72 120.909 381.72C118.509 381.72 116.409 381.14 114.609 379.98C112.809 378.8 111.409 377.23 110.409 375.27C109.409 373.29 108.909 371.1 108.909 368.7C108.909 366.3 109.409 364.12 110.409 362.16C111.409 360.18 112.809 358.6 114.609 357.42C116.409 356.24 118.509 355.65 120.909 355.65C122.449 355.65 123.799 355.9 124.959 356.4C126.119 356.88 127.059 357.46 127.779 358.14C128.499 358.8 128.999 359.41 129.279 359.97V356.37H138.339V381H129.369ZM117.849 368.7C117.849 369.82 118.109 370.83 118.629 371.73C119.149 372.61 119.839 373.3 120.699 373.8C121.579 374.3 122.549 374.55 123.609 374.55C124.709 374.55 125.679 374.3 126.519 373.8C127.359 373.3 128.019 372.61 128.499 371.73C128.999 370.83 129.249 369.82 129.249 368.7C129.249 367.58 128.999 366.58 128.499 365.7C128.019 364.8 127.359 364.1 126.519 363.6C125.679 363.08 124.709 362.82 123.609 362.82C122.549 362.82 121.579 363.08 120.699 363.6C119.839 364.1 119.149 364.8 118.629 365.7C118.109 366.58 117.849 367.58 117.849 368.7Z" fill="#076007"/>
<path d="M159.726 340.68C162.186 340.68 164.336 340.95 166.176 341.49C168.016 342.03 169.496 342.6 170.616 343.2C171.736 343.8 172.416 344.2 172.656 344.4L168.336 351.63C168.016 351.39 167.466 351.04 166.686 350.58C165.926 350.12 165.016 349.71 163.956 349.35C162.916 348.99 161.826 348.81 160.686 348.81C159.146 348.81 157.896 349.09 156.936 349.65C155.996 350.19 155.526 351 155.526 352.08C155.526 352.82 155.776 353.49 156.276 354.09C156.796 354.67 157.576 355.23 158.616 355.77C159.676 356.29 161.016 356.86 162.636 357.48C164.116 358.02 165.506 358.66 166.806 359.4C168.106 360.14 169.246 361.02 170.226 362.04C171.226 363.04 172.016 364.2 172.596 365.52C173.176 366.84 173.466 368.34 173.466 370.02C173.466 372.02 173.056 373.76 172.236 375.24C171.416 376.7 170.296 377.91 168.876 378.87C167.476 379.83 165.876 380.54 164.076 381C162.296 381.48 160.446 381.72 158.526 381.72C155.806 381.72 153.366 381.41 151.206 380.79C149.066 380.17 147.336 379.5 146.016 378.78C144.696 378.06 143.906 377.58 143.646 377.34L148.116 369.81C148.356 369.99 148.816 370.28 149.496 370.68C150.196 371.08 151.046 371.5 152.046 371.94C153.046 372.36 154.106 372.72 155.226 373.02C156.366 373.32 157.486 373.47 158.586 373.47C160.426 373.47 161.806 373.12 162.726 372.42C163.646 371.7 164.106 370.76 164.106 369.6C164.106 368.74 163.816 367.97 163.236 367.29C162.656 366.61 161.786 365.97 160.626 365.37C159.466 364.75 158.016 364.1 156.276 363.42C154.536 362.72 152.906 361.87 151.386 360.87C149.886 359.87 148.666 358.62 147.726 357.12C146.786 355.62 146.316 353.76 146.316 351.54C146.316 349.32 146.936 347.4 148.176 345.78C149.436 344.14 151.086 342.88 153.126 342C155.186 341.12 157.386 340.68 159.726 340.68ZM187.361 370.62C187.421 371.5 187.701 372.28 188.201 372.96C188.701 373.64 189.391 374.18 190.271 374.58C191.171 374.96 192.231 375.15 193.451 375.15C194.611 375.15 195.651 375.03 196.571 374.79C197.511 374.55 198.321 374.25 199.001 373.89C199.701 373.53 200.241 373.16 200.621 372.78L204.161 378.42C203.661 378.96 202.951 379.49 202.031 380.01C201.131 380.51 199.941 380.92 198.461 381.24C196.981 381.56 195.111 381.72 192.851 381.72C190.131 381.72 187.711 381.21 185.591 380.19C183.471 379.17 181.801 377.67 180.581 375.69C179.361 373.71 178.751 371.29 178.751 368.43C178.751 366.03 179.271 363.87 180.311 361.95C181.371 360.01 182.901 358.48 184.901 357.36C186.901 356.22 189.311 355.65 192.131 355.65C194.811 355.65 197.131 356.14 199.091 357.12C201.071 358.1 202.591 359.56 203.651 361.5C204.731 363.42 205.271 365.82 205.271 368.7C205.271 368.86 205.261 369.18 205.241 369.66C205.241 370.14 205.221 370.46 205.181 370.62H187.361ZM196.691 365.85C196.671 365.21 196.501 364.58 196.181 363.96C195.861 363.32 195.381 362.8 194.741 362.4C194.101 361.98 193.281 361.77 192.281 361.77C191.281 361.77 190.431 361.97 189.731 362.37C189.051 362.75 188.531 363.25 188.171 363.87C187.811 364.49 187.611 365.15 187.571 365.85H196.691ZM228.343 355.65C230.063 355.65 231.743 356 233.383 356.7C235.023 357.4 236.373 358.51 237.433 360.03C238.494 361.53 239.024 363.51 239.024 365.97V381H229.903V367.47C229.903 365.71 229.503 364.39 228.703 363.51C227.923 362.61 226.853 362.16 225.493 362.16C224.593 362.16 223.733 362.4 222.913 362.88C222.093 363.34 221.423 364 220.903 364.86C220.403 365.7 220.153 366.67 220.153 367.77V381H211.003V339.72H220.153V360C220.373 359.34 220.863 358.68 221.623 358.02C222.403 357.34 223.373 356.78 224.533 356.34C225.713 355.88 226.983 355.65 228.343 355.65ZM264.716 381V377.01C264.536 377.41 264.076 377.99 263.336 378.75C262.616 379.51 261.656 380.2 260.456 380.82C259.256 381.42 257.856 381.72 256.256 381.72C253.856 381.72 251.756 381.14 249.956 379.98C248.156 378.8 246.756 377.23 245.756 375.27C244.756 373.29 244.256 371.1 244.256 368.7C244.256 366.3 244.756 364.12 245.756 362.16C246.756 360.18 248.156 358.6 249.956 357.42C251.756 356.24 253.856 355.65 256.256 355.65C257.796 355.65 259.146 355.9 260.306 356.4C261.466 356.88 262.406 357.46 263.126 358.14C263.846 358.8 264.346 359.41 264.626 359.97V356.37H273.686V381H264.716ZM253.196 368.7C253.196 369.82 253.456 370.83 253.976 371.73C254.496 372.61 255.186 373.3 256.046 373.8C256.926 374.3 257.896 374.55 258.956 374.55C260.056 374.55 261.026 374.3 261.866 373.8C262.706 373.3 263.366 372.61 263.846 371.73C264.346 370.83 264.596 369.82 264.596 368.7C264.596 367.58 264.346 366.58 263.846 365.7C263.366 364.8 262.706 364.1 261.866 363.6C261.026 363.08 260.056 362.82 258.956 362.82C257.896 362.82 256.926 363.08 256.046 363.6C255.186 364.1 254.496 364.8 253.976 365.7C253.456 366.58 253.196 367.58 253.196 368.7ZM278.573 356.37H282.773V346.26H291.803V356.37H297.323V363.87H291.803V370.74C291.803 371.76 291.953 372.59 292.253 373.23C292.553 373.85 293.103 374.16 293.903 374.16C294.443 374.16 294.903 374.04 295.283 373.8C295.663 373.56 295.893 373.4 295.973 373.32L299.093 379.8C298.953 379.92 298.513 380.14 297.773 380.46C297.053 380.78 296.133 381.07 295.013 381.33C293.893 381.59 292.643 381.72 291.263 381.72C288.803 381.72 286.773 381.03 285.173 379.65C283.573 378.25 282.773 376.1 282.773 373.2V363.87H278.573V356.37Z" fill="#388E3C"/>
<defs>
<linearGradient id="paint0_linear_273_851" x1="-76.0491" y1="137.356" x2="243.203" y2="139.933" gradientUnits="userSpaceOnUse">
<stop offset="0.032816" stop-color="#96F41F"/>
<stop offset="1" stop-color="#103106"/>
</linearGradient>
<linearGradient id="paint1_linear_273_851" x1="263.092" y1="142.093" x2="-4.58472" y2="293.953" gradientUnits="userSpaceOnUse">
<stop stop-color="#00FF0A"/>
<stop offset="1" stop-color="#03220B"/>
</linearGradient>
</defs>
</svg>
