<svg width="522" height="662" viewBox="0 0 522 662" fill="none" xmlns="http://www.w3.org/2000/svg">
<path d="M48.2193 505.64H69.9633C73.5793 505.64 76.9233 506.136 79.9953 507.128C83.0993 508.12 85.5953 509.752 87.4833 512.024C89.4033 514.264 90.3633 517.304 90.3633 521.144C90.3633 523.672 89.8833 525.928 88.9233 527.912C87.9953 529.896 86.7473 531.528 85.1793 532.808C83.6433 534.056 81.9633 534.888 80.1393 535.304C81.7393 535.496 83.2913 535.96 84.7953 536.696C86.3313 537.4 87.7073 538.392 88.9233 539.672C90.1713 540.92 91.1473 542.488 91.8513 544.376C92.5873 546.232 92.9553 548.44 92.9553 551C92.9553 554.552 92.1553 557.688 90.5553 560.408C88.9873 563.096 86.6833 565.208 83.6433 566.744C80.6353 568.248 76.9393 569 72.5553 569H48.2193V505.64ZM62.5713 557.528H69.0993C71.1473 557.528 72.8113 557.224 74.0913 556.616C75.4033 555.976 76.3633 555.08 76.9713 553.928C77.5793 552.744 77.8833 551.336 77.8833 549.704C77.8833 547.144 77.0833 545.272 75.4833 544.088C73.9153 542.872 71.7073 542.264 68.8593 542.264H62.5713V557.528ZM62.5713 531.032H68.3793C70.0753 531.032 71.4833 530.728 72.6033 530.12C73.7553 529.512 74.6193 528.664 75.1953 527.576C75.8033 526.456 76.1073 525.176 76.1073 523.736C76.1073 521.144 75.3713 519.4 73.8993 518.504C72.4273 517.576 70.4113 517.112 67.8513 517.112H62.5713V531.032ZM103.908 569V529.592H118.5V569H103.908ZM111.396 521.48C109.092 521.48 107.14 520.68 105.54 519.08C103.94 517.448 103.14 515.512 103.14 513.272C103.14 511.032 103.94 509.096 105.54 507.464C107.172 505.8 109.124 504.968 111.396 504.968C112.9 504.968 114.276 505.352 115.524 506.12C116.772 506.856 117.78 507.848 118.548 509.096C119.316 510.344 119.7 511.736 119.7 513.272C119.7 515.512 118.884 517.448 117.252 519.08C115.62 520.68 113.668 521.48 111.396 521.48ZM148.137 528.44C150.729 528.44 153.097 528.664 155.241 529.112C157.385 529.528 159.177 530.008 160.617 530.552C162.089 531.096 163.033 531.544 163.449 531.896L158.697 540.488C158.089 540.04 156.953 539.464 155.289 538.76C153.657 538.056 151.833 537.704 149.817 537.704C148.281 537.704 146.985 537.944 145.929 538.424C144.873 538.872 144.345 539.592 144.345 540.584C144.345 541.576 144.921 542.376 146.073 542.984C147.257 543.56 148.953 544.072 151.161 544.52C153.081 544.904 155.033 545.512 157.017 546.344C159.001 547.176 160.649 548.408 161.961 550.04C163.305 551.64 163.977 553.784 163.977 556.472C163.977 559.224 163.385 561.496 162.201 563.288C161.017 565.08 159.449 566.472 157.497 567.464C155.545 568.456 153.433 569.144 151.161 569.528C148.889 569.944 146.681 570.152 144.537 570.152C141.529 570.152 138.905 569.88 136.665 569.336C134.457 568.792 132.665 568.168 131.289 567.464C129.913 566.76 128.953 566.2 128.409 565.784L133.113 556.184C133.945 556.888 135.305 557.688 137.193 558.584C139.081 559.448 141.081 559.88 143.193 559.88C145.241 559.88 146.825 559.576 147.945 558.968C149.065 558.36 149.625 557.56 149.625 556.568C149.625 555.768 149.353 555.128 148.809 554.648C148.265 554.168 147.497 553.752 146.505 553.4C145.513 553.048 144.313 552.728 142.905 552.44C141.625 552.184 140.265 551.784 138.825 551.24C137.385 550.696 136.025 549.96 134.745 549.032C133.465 548.072 132.425 546.872 131.625 545.432C130.825 543.992 130.425 542.248 130.425 540.2C130.425 537.576 131.273 535.4 132.969 533.672C134.665 531.944 136.857 530.648 139.545 529.784C142.233 528.888 145.097 528.44 148.137 528.44ZM204.219 569V562.616C203.931 563.256 203.195 564.184 202.011 565.4C200.859 566.616 199.323 567.72 197.403 568.712C195.483 569.672 193.243 570.152 190.683 570.152C186.843 570.152 183.483 569.224 180.603 567.368C177.723 565.48 175.483 562.968 173.883 559.832C172.283 556.664 171.483 553.16 171.483 549.32C171.483 545.48 172.283 541.992 173.883 538.856C175.483 535.688 177.723 533.16 180.603 531.272C183.483 529.384 186.843 528.44 190.683 528.44C193.147 528.44 195.307 528.84 197.163 529.64C199.019 530.408 200.523 531.336 201.675 532.424C202.827 533.48 203.627 534.456 204.075 535.352V529.592H218.571V569H204.219ZM185.787 549.32C185.787 551.112 186.203 552.728 187.035 554.168C187.867 555.576 188.971 556.68 190.347 557.48C191.755 558.28 193.307 558.68 195.003 558.68C196.763 558.68 198.315 558.28 199.659 557.48C201.003 556.68 202.059 555.576 202.827 554.168C203.627 552.728 204.027 551.112 204.027 549.32C204.027 547.528 203.627 545.928 202.827 544.52C202.059 543.08 201.003 541.96 199.659 541.16C198.315 540.328 196.763 539.912 195.003 539.912C193.307 539.912 191.755 540.328 190.347 541.16C188.971 541.96 187.867 543.08 187.035 544.52C186.203 545.928 185.787 547.528 185.787 549.32Z" fill="#076007"/>
<path d="M252.791 504.488C256.727 504.488 260.167 504.92 263.111 505.784C266.055 506.648 268.423 507.56 270.215 508.52C272.007 509.48 273.095 510.12 273.479 510.44L266.567 522.008C266.055 521.624 265.175 521.064 263.927 520.328C262.711 519.592 261.255 518.936 259.559 518.36C257.895 517.784 256.151 517.496 254.327 517.496C251.863 517.496 249.863 517.944 248.327 518.84C246.823 519.704 246.071 521 246.071 522.728C246.071 523.912 246.471 524.984 247.271 525.944C248.103 526.872 249.351 527.768 251.015 528.632C252.711 529.464 254.855 530.376 257.447 531.368C259.815 532.232 262.039 533.256 264.119 534.44C266.199 535.624 268.023 537.032 269.591 538.664C271.191 540.264 272.455 542.12 273.383 544.232C274.311 546.344 274.775 548.744 274.775 551.432C274.775 554.632 274.119 557.416 272.807 559.784C271.495 562.12 269.703 564.056 267.431 565.592C265.191 567.128 262.631 568.264 259.751 569C256.903 569.768 253.943 570.152 250.871 570.152C246.519 570.152 242.615 569.656 239.159 568.664C235.735 567.672 232.967 566.6 230.855 565.448C228.743 564.296 227.479 563.528 227.063 563.144L234.215 551.096C234.599 551.384 235.335 551.848 236.423 552.488C237.543 553.128 238.903 553.8 240.503 554.504C242.103 555.176 243.799 555.752 245.591 556.232C247.415 556.712 249.207 556.952 250.967 556.952C253.911 556.952 256.119 556.392 257.591 555.272C259.063 554.12 259.799 552.616 259.799 550.76C259.799 549.384 259.335 548.152 258.407 547.064C257.479 545.976 256.087 544.952 254.231 543.992C252.375 543 250.055 541.96 247.271 540.872C244.487 539.752 241.879 538.392 239.447 536.792C237.047 535.192 235.095 533.192 233.591 530.792C232.087 528.392 231.335 525.416 231.335 521.864C231.335 518.312 232.327 515.24 234.311 512.648C236.327 510.024 238.967 508.008 242.231 506.6C245.527 505.192 249.047 504.488 252.791 504.488ZM297.006 552.392C297.102 553.8 297.55 555.048 298.35 556.136C299.15 557.224 300.254 558.088 301.662 558.728C303.102 559.336 304.798 559.64 306.75 559.64C308.606 559.64 310.27 559.448 311.742 559.064C313.246 558.68 314.542 558.2 315.63 557.624C316.75 557.048 317.614 556.456 318.222 555.848L323.886 564.872C323.086 565.736 321.95 566.584 320.478 567.416C319.038 568.216 317.134 568.872 314.766 569.384C312.398 569.896 309.406 570.152 305.79 570.152C301.438 570.152 297.566 569.336 294.174 567.704C290.782 566.072 288.11 563.672 286.158 560.504C284.206 557.336 283.23 553.464 283.23 548.888C283.23 545.048 284.062 541.592 285.726 538.52C287.422 535.416 289.87 532.968 293.07 531.176C296.27 529.352 300.126 528.44 304.638 528.44C308.926 528.44 312.638 529.224 315.774 530.792C318.942 532.36 321.374 534.696 323.07 537.8C324.798 540.872 325.662 544.712 325.662 549.32C325.662 549.576 325.646 550.088 325.614 550.856C325.614 551.624 325.582 552.136 325.518 552.392H297.006ZM311.934 544.76C311.902 543.736 311.63 542.728 311.118 541.736C310.606 540.712 309.838 539.88 308.814 539.24C307.79 538.568 306.478 538.232 304.878 538.232C303.278 538.232 301.918 538.552 300.798 539.192C299.71 539.8 298.878 540.6 298.302 541.592C297.726 542.584 297.406 543.64 297.342 544.76H311.934ZM362.578 528.44C365.33 528.44 368.018 529 370.642 530.12C373.266 531.24 375.426 533.016 377.122 535.448C378.818 537.848 379.666 541.016 379.666 544.952V569H365.074V547.352C365.074 544.536 364.434 542.424 363.154 541.016C361.906 539.576 360.194 538.856 358.018 538.856C356.578 538.856 355.202 539.24 353.89 540.008C352.578 540.744 351.506 541.8 350.674 543.176C349.874 544.52 349.474 546.072 349.474 547.832V569H334.834V502.952H349.474V535.4C349.826 534.344 350.61 533.288 351.826 532.232C353.074 531.144 354.626 530.248 356.482 529.544C358.37 528.808 360.402 528.44 362.578 528.44ZM420.774 569V562.616C420.486 563.256 419.75 564.184 418.566 565.4C417.414 566.616 415.878 567.72 413.958 568.712C412.038 569.672 409.798 570.152 407.238 570.152C403.398 570.152 400.038 569.224 397.158 567.368C394.278 565.48 392.038 562.968 390.438 559.832C388.838 556.664 388.038 553.16 388.038 549.32C388.038 545.48 388.838 541.992 390.438 538.856C392.038 535.688 394.278 533.16 397.158 531.272C400.038 529.384 403.398 528.44 407.238 528.44C409.702 528.44 411.862 528.84 413.718 529.64C415.574 530.408 417.078 531.336 418.23 532.424C419.382 533.48 420.182 534.456 420.63 535.352V529.592H435.126V569H420.774ZM402.342 549.32C402.342 551.112 402.758 552.728 403.59 554.168C404.422 555.576 405.526 556.68 406.902 557.48C408.31 558.28 409.862 558.68 411.558 558.68C413.318 558.68 414.87 558.28 416.214 557.48C417.558 556.68 418.614 555.576 419.382 554.168C420.182 552.728 420.582 551.112 420.582 549.32C420.582 547.528 420.182 545.928 419.382 544.52C418.614 543.08 417.558 541.96 416.214 541.16C414.87 540.328 413.318 539.912 411.558 539.912C409.862 539.912 408.31 540.328 406.902 541.16C405.526 541.96 404.422 543.08 403.59 544.52C402.758 545.928 402.342 547.528 402.342 549.32ZM442.946 529.592H449.666V513.416H464.114V529.592H472.946V541.592H464.114V552.584C464.114 554.216 464.354 555.544 464.834 556.568C465.314 557.56 466.194 558.056 467.474 558.056C468.338 558.056 469.074 557.864 469.682 557.48C470.29 557.096 470.658 556.84 470.786 556.712L475.778 567.08C475.554 567.272 474.85 567.624 473.666 568.136C472.514 568.648 471.042 569.112 469.25 569.528C467.458 569.944 465.458 570.152 463.25 570.152C459.314 570.152 456.066 569.048 453.506 566.84C450.946 564.6 449.666 561.16 449.666 556.52V541.592H442.946V529.592Z" fill="#388E3C"/>
<path d="M65.901 636.24C68.397 636.24 70.413 635.84 71.949 635.04C73.485 634.24 74.445 633.664 74.829 633.312L78.909 639.312C78.589 639.6 77.821 640.064 76.605 640.704C75.421 641.312 73.885 641.872 71.997 642.384C70.141 642.896 68.029 643.152 65.661 643.152C62.045 643.152 58.685 642.352 55.581 640.752C52.477 639.12 49.965 636.752 48.045 633.648C46.157 630.544 45.213 626.752 45.213 622.272C45.213 617.76 46.157 613.968 48.045 610.896C49.965 607.792 52.477 605.44 55.581 603.84C58.685 602.24 62.045 601.44 65.661 601.44C67.997 601.44 70.077 601.728 71.901 602.304C73.725 602.848 75.229 603.456 76.413 604.128C77.597 604.8 78.381 605.312 78.765 605.664L74.637 611.664C74.381 611.408 73.885 611.024 73.149 610.512C72.445 609.968 71.485 609.472 70.269 609.024C69.053 608.576 67.597 608.352 65.901 608.352C63.853 608.352 61.853 608.912 59.901 610.032C57.981 611.12 56.397 612.704 55.149 614.784C53.901 616.864 53.277 619.36 53.277 622.272C53.277 625.184 53.901 627.696 55.149 629.808C56.397 631.888 57.981 633.488 59.901 634.608C61.853 635.696 63.853 636.24 65.901 636.24ZM106.369 643.152C102.305 643.152 98.6888 642.24 95.5208 640.416C92.3848 638.592 89.9208 636.128 88.1288 633.024C86.3368 629.888 85.4408 626.352 85.4408 622.416C85.4408 618.48 86.3368 614.928 88.1288 611.76C89.9208 608.592 92.3848 606.08 95.5208 604.224C98.6888 602.368 102.305 601.44 106.369 601.44C110.401 601.44 113.969 602.368 117.073 604.224C120.209 606.08 122.657 608.592 124.417 611.76C126.177 614.928 127.057 618.48 127.057 622.416C127.057 626.352 126.177 629.888 124.417 633.024C122.657 636.128 120.209 638.592 117.073 640.416C113.969 642.24 110.401 643.152 106.369 643.152ZM106.369 636C108.929 636 111.153 635.408 113.041 634.224C114.961 633.04 116.449 631.424 117.505 629.376C118.561 627.296 119.089 624.96 119.089 622.368C119.089 619.776 118.561 617.44 117.505 615.36C116.449 613.28 114.961 611.632 113.041 610.416C111.153 609.2 108.929 608.592 106.369 608.592C103.777 608.592 101.521 609.2 99.6008 610.416C97.6808 611.632 96.1768 613.28 95.0888 615.36C94.0328 617.44 93.5048 619.776 93.5048 622.368C93.5048 624.96 94.0328 627.296 95.0888 629.376C96.1768 631.424 97.6808 633.04 99.6008 634.224C101.521 635.408 103.777 636 106.369 636ZM184.556 601.44C187.468 601.44 189.964 602.08 192.044 603.36C194.124 604.608 195.708 606.528 196.796 609.12C197.916 611.712 198.476 615.024 198.476 619.056V642H190.22V620.736C190.22 616.48 189.628 613.28 188.444 611.136C187.26 608.992 185.1 607.92 181.964 607.92C180.3 607.92 178.7 608.384 177.164 609.312C175.66 610.208 174.412 611.6 173.42 613.488C172.46 615.376 171.98 617.792 171.98 620.736V642H164.204V620.736C164.204 616.48 163.468 613.28 161.996 611.136C160.524 608.992 158.46 607.92 155.804 607.92C154.108 607.92 152.508 608.368 151.004 609.264C149.532 610.128 148.332 611.504 147.404 613.392C146.476 615.28 146.012 617.728 146.012 620.736V642H137.708V602.592H146.012V608.64C146.364 607.648 147.116 606.592 148.268 605.472C149.452 604.352 150.956 603.408 152.78 602.64C154.636 601.84 156.7 601.44 158.972 601.44C161.34 601.44 163.324 601.92 164.924 602.88C166.524 603.84 167.788 605.024 168.716 606.432C169.644 607.808 170.284 609.136 170.636 610.416C171.084 609.04 171.948 607.664 173.228 606.288C174.508 604.88 176.124 603.728 178.076 602.832C180.028 601.904 182.188 601.44 184.556 601.44ZM258.266 601.44C261.178 601.44 263.674 602.08 265.754 603.36C267.834 604.608 269.418 606.528 270.506 609.12C271.626 611.712 272.186 615.024 272.186 619.056V642H263.93V620.736C263.93 616.48 263.338 613.28 262.154 611.136C260.97 608.992 258.81 607.92 255.674 607.92C254.01 607.92 252.41 608.384 250.874 609.312C249.37 610.208 248.122 611.6 247.13 613.488C246.17 615.376 245.69 617.792 245.69 620.736V642H237.914V620.736C237.914 616.48 237.178 613.28 235.706 611.136C234.234 608.992 232.17 607.92 229.514 607.92C227.818 607.92 226.218 608.368 224.714 609.264C223.242 610.128 222.042 611.504 221.114 613.392C220.186 615.28 219.722 617.728 219.722 620.736V642H211.418V602.592H219.722V608.64C220.074 607.648 220.826 606.592 221.978 605.472C223.162 604.352 224.666 603.408 226.49 602.64C228.346 601.84 230.41 601.44 232.682 601.44C235.05 601.44 237.034 601.92 238.634 602.88C240.234 603.84 241.498 605.024 242.426 606.432C243.354 607.808 243.994 609.136 244.346 610.416C244.794 609.04 245.658 607.664 246.938 606.288C248.218 604.88 249.834 603.728 251.786 602.832C253.738 601.904 255.898 601.44 258.266 601.44ZM292.52 622.464C292.52 626.592 293.4 629.888 295.16 632.352C296.952 634.784 299.688 636 303.368 636C307.08 636 309.816 634.784 311.576 632.352C313.336 629.888 314.216 626.592 314.216 622.464V602.592H322.472V623.616C322.472 627.456 321.72 630.848 320.216 633.792C318.744 636.736 316.584 639.04 313.736 640.704C310.92 642.336 307.464 643.152 303.368 643.152C299.304 643.152 295.848 642.336 293 640.704C290.184 639.04 288.024 636.736 286.52 633.792C285.048 630.848 284.312 627.456 284.312 623.616V602.592H292.52V622.464ZM356.813 601.44C359.405 601.44 361.917 601.984 364.349 603.072C366.813 604.16 368.829 605.888 370.397 608.256C371.997 610.592 372.797 613.648 372.797 617.424V642H364.349V619.056C364.349 615.152 363.437 612.32 361.613 610.56C359.789 608.768 357.437 607.872 354.557 607.872C352.669 607.872 350.845 608.416 349.085 609.504C347.357 610.56 345.933 612.032 344.813 613.92C343.693 615.776 343.133 617.888 343.133 620.256V642H334.781V602.592H343.133V609.6C343.421 608.512 344.205 607.328 345.485 606.048C346.765 604.768 348.397 603.68 350.381 602.784C352.365 601.888 354.509 601.44 356.813 601.44ZM385.591 642V602.592H393.943V642H385.591ZM389.863 589.104C388.359 589.104 387.063 588.576 385.975 587.52C384.919 586.432 384.391 585.136 384.391 583.632C384.391 582.128 384.919 580.832 385.975 579.744C387.063 578.656 388.359 578.112 389.863 578.112C390.855 578.112 391.767 578.368 392.599 578.88C393.463 579.392 394.151 580.064 394.663 580.896C395.175 581.696 395.431 582.608 395.431 583.632C395.431 585.136 394.887 586.432 393.799 587.52C392.711 588.576 391.399 589.104 389.863 589.104ZM404.31 602.592H412.038V586.416H420.342V602.592H430.47V609.744H420.342V629.232C420.342 631.536 420.742 633.232 421.542 634.32C422.374 635.408 423.478 635.952 424.854 635.952C426.07 635.952 427.014 635.728 427.686 635.28C428.358 634.832 428.758 634.528 428.886 634.368L432.198 640.512C432.006 640.672 431.494 640.976 430.662 641.424C429.83 641.872 428.758 642.272 427.446 642.624C426.134 642.976 424.598 643.152 422.838 643.152C419.766 643.152 417.19 642.224 415.11 640.368C413.062 638.48 412.038 635.504 412.038 631.44V609.744H404.31V602.592ZM456.779 634.368L470.075 602.592H478.427L451.835 661.968H443.387L452.315 642L436.091 602.592H444.587L456.779 634.368Z" fill="#01FF0B"/>
<path d="M127.102 97.7836C51.4805 97.1948 3.63814 162.514 34.5041 232.753L256.739 459.996L387.919 374.608L259.826 198.322C271.094 198.665 202.723 98.3724 127.102 97.7836Z" fill="url(#paint0_linear_273_849)"/>
<path d="M487.236 231.375C464.086 300.237 340.422 460.89 258.283 459.996C176.143 459.102 33.959 235.966 33.959 231.375C95.6909 301.614 172.653 323.875 258.828 196.944C299.97 136.343 331.362 96.4064 386.921 96.4064C479.519 96.4062 510.385 162.514 487.236 231.375Z" fill="url(#paint1_linear_273_849)"/>
<ellipse cx="261.369" cy="48.2032" rx="54.0154" ry="48.2032" fill="#3A602F"/>
<defs>
<linearGradient id="paint0_linear_273_849" x1="-81.2432" y1="199.699" x2="364.764" y2="203.158" gradientUnits="userSpaceOnUse">
<stop offset="0.032816" stop-color="#96F41F"/>
<stop offset="1" stop-color="#103106"/>
</linearGradient>
<linearGradient id="paint1_linear_273_849" x1="392.549" y1="206.585" x2="11.4823" y2="414.322" gradientUnits="userSpaceOnUse">
<stop stop-color="#00FF0A"/>
<stop offset="1" stop-color="#03220B"/>
</linearGradient>
</defs>
</svg>
