<svg width="314" height="313" viewBox="0 0 314 313" fill="none" xmlns="http://www.w3.org/2000/svg">
<path d="M105.818 151.793C106.099 149.37 107.214 147.12 108.973 145.425C120.504 137.798 129.961 127.439 136.496 115.274C143.066 103.046 146.475 89.378 146.417 75.5059V39.125C146.417 36.3318 147.53 33.6513 149.514 31.6738C151.498 29.6959 154.191 28.5834 157 28.5834C159.809 28.5834 162.502 29.6959 164.486 31.6738L166.251 29.9032L164.486 31.6738C166.47 33.6513 167.583 36.3318 167.583 39.125V75.5059C167.525 89.378 170.934 103.046 177.504 115.274C184.072 127.5 193.591 137.902 205.202 145.541C207.075 146.798 208.495 148.618 209.255 150.734C210.015 152.854 210.075 155.16 209.425 157.315C208.775 159.471 207.449 161.364 205.64 162.716C204.475 163.587 203.148 164.203 201.747 164.537L199.361 164.564C197.31 164.587 195.304 163.969 193.625 162.797L193.594 162.775L193.563 162.755C179.213 153.363 167.408 140.59 159.194 125.566L157 121.554L154.806 125.566C146.623 140.533 134.877 153.266 120.6 162.648C118.354 163.634 115.831 163.813 113.464 163.149C111.04 162.47 108.941 160.952 107.54 158.871C106.14 156.789 105.53 154.28 105.818 151.793Z" fill="#54FF65" stroke="#388E3C" stroke-width="5"/>
<path d="M128.821 180.945L128.823 180.956C132.478 202.352 128.31 224.346 117.076 242.941C105.847 261.527 88.3026 275.485 67.6263 282.277C65.2882 282.996 62.8592 283.38 60.4124 283.417C56.7128 283.429 53.0716 282.5 49.833 280.72L49.7973 280.7L49.7611 280.681C47.0212 279.257 44.6031 277.29 42.6549 274.901C40.7198 272.528 39.2888 269.79 38.4479 266.851C31.9973 240.416 29.0449 213.253 29.6659 186.054L29.6681 185.957L29.6649 185.859C28.7483 157.949 34.6822 130.238 46.9514 105.133C50.1435 99.0649 54.9513 93.9878 60.8491 90.4604C66.7608 86.9246 73.5379 85.0835 80.4336 85.1407L80.4496 85.1408L80.4657 85.1408C89.5005 85.1329 98.2427 88.3242 105.134 94.1432C112.024 99.962 116.616 108.029 118.092 116.906L118.092 116.91L128.821 180.945ZM233.535 85.1408L233.551 85.1408L233.567 85.1407C240.462 85.0835 247.239 86.9246 253.151 90.4604C259.049 93.9878 263.857 99.065 267.049 105.134C279.318 130.238 285.252 157.949 284.335 185.859L284.332 185.957L284.334 186.054C284.955 213.253 282.003 240.416 275.552 266.851C274.712 269.79 273.28 272.528 271.345 274.901C269.397 277.29 266.979 279.257 264.239 280.681L264.219 280.692L264.198 280.703C261.494 282.154 258.521 283.043 255.461 283.315C252.403 283.587 249.322 283.237 246.404 282.287C225.715 275.498 208.158 261.536 196.924 242.941C185.69 224.346 181.523 202.352 185.178 180.956L185.18 180.945L195.908 116.91L195.909 116.906C197.385 108.029 201.976 99.962 208.867 94.1432C215.757 88.3242 224.5 85.1329 233.535 85.1408Z" fill="#EF9184" stroke="#EB4335" stroke-width="7"/>
</svg>
