<svg width="71" height="72" viewBox="0 0 71 72" fill="none" xmlns="http://www.w3.org/2000/svg">
<g clip-path="url(#clip0_172_471)">
<path d="M25.1459 16.7709C29.3231 18.1613 31.2046 23.1579 32.03 28.6722L18.6494 36.3964L21.6077 41.5203L32.5832 35.1865C32.7192 39.1921 32.5417 42.8279 32.5417 44.875C32.5417 53.75 29.5834 62.625 17.7501 62.625C5.91675 62.625 5.91675 62.625 5.91675 50.7917C5.91675 28.6042 16.2709 13.8125 25.1459 16.7709ZM65.0864 50.7917V52.0815C65.0716 62.625 64.6426 62.625 53.253 62.625C41.4197 62.625 38.4614 53.75 38.4614 44.875C38.4614 42.8308 38.2839 39.195 38.42 35.1894L49.3954 41.5203L52.3537 36.3964L38.9732 28.6752C39.7985 23.1579 41.68 18.1642 45.8572 16.7709C54.7322 13.8125 65.0864 28.6042 65.0864 50.7917ZM38.4584 6.41669V33.0417H32.5417V6.41669H38.4584Z" fill="#F4371D"/>
</g>
<defs>
<clipPath id="clip0_172_471">
<rect width="71" height="71" fill="white" transform="translate(0 0.5)"/>
</clipPath>
</defs>
</svg>
