<svg width="289" height="289" viewBox="0 0 289 289" fill="none" xmlns="http://www.w3.org/2000/svg">
<path fill-rule="evenodd" clip-rule="evenodd" d="M224.485 154.226L223.489 152.099C219.196 142.923 217.947 133.204 217.572 124.583C217.383 120.238 217.412 115.943 217.458 111.996C217.465 111.453 217.471 110.919 217.478 110.392C217.52 106.985 217.558 103.891 217.491 100.912C217.205 89.1722 213.52 77.7398 206.846 67.95C199.242 58.4994 189.304 51.0671 177.942 46.3711L177.745 46.2894L177.55 46.2008C162.171 39.1954 145.407 35.5711 128.435 35.59L128.422 35.5901C107.065 35.5901 86.6271 43.9191 71.5931 58.6749C56.5664 73.4235 48.1667 93.3777 48.1667 114.136C48.1667 126.445 51.7367 140.483 57.9485 153.473C64.1749 166.494 72.6155 177.547 81.5052 184.398L86.1967 188.013V241.691C88.1528 244.114 91.9526 247.105 97.6519 249.698C104.626 252.873 111.638 254.159 115.695 253.828L116.185 253.788H116.675C128.454 253.788 133.965 250.459 136.338 248.435C137.197 247.701 137.795 247.011 138.196 246.466V213.139L153.23 217.025L153.237 217.026L153.243 217.028L153.251 217.03L153.324 217.048C153.417 217.071 153.578 217.109 153.801 217.161C154.248 217.265 154.943 217.419 155.85 217.601C157.671 217.966 160.319 218.437 163.512 218.831C169.994 219.631 178.263 220.056 186.248 218.884C194.301 217.704 201.013 215.06 205.629 210.643C209.927 206.529 213.712 199.639 213.712 187.018V176.724L223.835 175.13L223.843 175.129L223.892 175.121C223.928 175.114 223.979 175.105 224.046 175.092C224.112 175.08 224.193 175.065 224.287 175.047C224.667 174.971 225.257 174.847 225.989 174.665C227.488 174.293 229.402 173.725 231.269 172.938C233.206 172.121 234.601 171.271 235.422 170.547C235.588 170.401 235.704 170.284 235.784 170.197C235.755 169.874 235.642 169.212 235.222 168.14C234.564 166.465 233.44 164.528 232.001 162.525C230.594 160.568 229.098 158.839 227.932 157.586C227.359 156.969 226.887 156.491 226.576 156.183C226.497 156.105 226.429 156.038 226.373 155.983C226.318 155.93 226.275 155.888 226.243 155.858L226.194 155.811L226.187 155.805L224.485 154.226ZM150.238 228.689C150.238 228.689 155.065 229.936 162.28 230.812C183.597 233.399 225.754 232.735 225.754 187.018C225.754 187.018 245.639 183.889 247.653 172.524C249.667 161.16 234.396 146.995 234.396 146.995C229.203 135.898 229.365 122.83 229.518 110.563C229.561 107.171 229.602 103.841 229.529 100.63C229.185 86.3936 224.67 72.5559 216.524 60.7719C207.603 49.5541 195.904 40.7652 182.541 35.2424C165.586 27.5188 147.115 23.5276 128.422 23.5484C103.943 23.5484 80.4672 33.0925 63.1579 50.081C45.8491 67.0697 36.125 90.1108 36.125 114.136C36.125 143.042 52.675 177.383 74.155 193.936V245.077C80.2499 257.86 103.242 266.926 116.675 265.829C145.203 265.829 150.238 249.359 150.238 249.359V228.689Z" fill="#5B5757"/>
<path d="M160.894 121.294C165.548 121.294 164.073 119.928 167.916 117.374C171.819 119.923 176.424 121.259 181.124 121.206L196.052 115.92C200.258 112.545 203.146 107.866 204.232 102.668C205.318 97.4687 204.536 92.0644 202.017 87.3597C199.497 82.6544 195.394 78.9348 190.393 76.8221C189.252 71.7886 186.376 67.2863 182.242 64.0627L167.671 59.1002H166.03C162.788 54.4979 157.923 51.215 152.357 49.8757L127.136 48.1665C121.943 48.5864 117.046 50.6943 113.234 54.1509C111.433 53.7375 109.589 53.5233 107.738 53.5122C103.256 53.5212 98.8731 54.7923 95.1179 57.172C91.3621 59.5517 88.395 62.9386 86.5737 66.9232L74.703 75.1061C71.7498 79.001 70.1597 83.7159 70.1676 88.5567C70.138 90.5803 70.4144 92.5978 70.9876 94.5438C67.873 98.476 66.1986 103.309 66.2299 108.274C66.2221 114.032 68.4829 119.574 72.5464 123.76C72.8739 127.883 74.3544 131.84 76.8266 135.202C79.2993 138.565 82.6698 141.206 86.5737 142.839C91.0719 145.583 94.8807 149.274 97.7195 153.639C100.559 158.005 101.731 162.934 102.354 168.064H127.136V144.116C127.131 139.864 128.35 135.696 130.655 132.084C132.961 128.471 134.252 125.56 138.172 123.68C141.844 122.313 145.153 120.157 147.851 117.374C151.695 119.928 156.241 121.294 160.894 121.294Z" fill="#FF7879"/>
<path d="M204.708 141.49C204.708 146.477 200.665 150.521 195.677 150.521C190.69 150.521 186.646 146.477 186.646 141.49C186.646 136.502 190.69 132.458 195.677 132.458C200.665 132.458 204.708 136.502 204.708 141.49Z" fill="#5B5757"/>
<path fill-rule="evenodd" clip-rule="evenodd" d="M126.437 192.667H102.354V180.625H126.437V192.667Z" fill="#5B5757"/>
<path fill-rule="evenodd" clip-rule="evenodd" d="M126.437 216.75H102.354V204.708H126.437V216.75Z" fill="#5B5757"/>
<path fill-rule="evenodd" clip-rule="evenodd" d="M126.437 240.833H102.354V228.792H126.437V240.833Z" fill="#5B5757"/>
</svg>
