<svg width="68" height="68" viewBox="0 0 68 68" fill="none" xmlns="http://www.w3.org/2000/svg">
<g clip-path="url(#clip0_162_512)">
<path d="M34.2749 3C47.6358 3 58.6647 12.867 60.3331 25.6362L67.723 37.138C68.209 37.8953 68.1105 39.023 66.984 39.504L60.5499 42.2275V51.75C60.5499 55.3412 57.6104 58.25 53.9812 58.25H47.4157L47.4124 68H17.8531V55.9945C17.8531 52.1595 16.4211 48.5293 13.7674 45.2533C10.1578 40.8008 8 35.149 8 29C8 14.6415 19.7646 3 34.2749 3ZM34.2749 9.5C23.3906 9.5 14.5687 18.2295 14.5687 29C14.5687 33.5012 16.1058 37.7522 18.891 41.1875C22.4841 45.6205 24.4218 50.6677 24.4218 55.9945V61.5H40.8437L40.8503 51.75H53.9812V37.944L59.0719 35.786L54.0041 27.9048L53.8169 26.4682C52.5557 16.8157 44.2069 9.5 34.2749 9.5ZM32.5342 21.7297L34.2749 23.4523L36.0157 21.7297C38.2622 19.5067 41.9012 19.5067 44.1445 21.7297C46.391 23.9495 46.391 27.5505 44.1445 29.7703L34.2749 39.5397L24.4054 29.7703C22.1589 27.5505 22.1589 23.9495 24.4054 21.7297C26.6486 19.5067 30.2877 19.5067 32.5342 21.7297Z" fill="#FF7879"/>
</g>
<defs>
<clipPath id="clip0_162_512">
<rect width="68" height="68" fill="white"/>
</clipPath>
</defs>
</svg>
