<svg width="110" height="110" viewBox="0 0 110 110" fill="none" xmlns="http://www.w3.org/2000/svg">
<path d="M37.4087 4.55469C37.4087 3.62657 37.9243 3.28282 38.9126 3.28282C39.9009 3.28282 71.2337 3.16251 71.7579 3.16251C72.2735 3.16251 72.8579 3.67813 72.7978 4.37423C72.7376 5.07032 72.8579 14.8844 72.7978 15.4C72.7376 15.9156 72.454 16.5 71.6978 16.5516C70.9501 16.6117 39.3165 16.7234 38.6806 16.7234C38.0446 16.7234 37.529 15.9758 37.4688 15.2797C37.4087 14.5836 37.4087 5.13048 37.4087 4.55469Z" fill="#546F7B"/>
<path d="M41.8516 16.0359H45.9508V20.5391H41.8516V16.0359Z" fill="#546F7B"/>
<path d="M64.5991 16.2164H68.5007V20.582H64.5991V16.2164Z" fill="#546F7B"/>
<path d="M40.8115 5.76642H69.7295V13.5609H40.8115V5.76642Z" fill="#C9C8C7"/>
<path d="M79.7759 23.3148C79.7759 23.3148 79.8876 8.76563 79.8876 8.18985C79.8876 7.61407 80.3517 7.08985 81.1595 7.32188C81.9673 7.55391 83.3509 8.30157 85.7743 9.05782C88.1978 9.81407 90.9048 10.7336 91.154 11.0602C91.5493 11.5844 89.4696 12.9852 86.4618 14.6008C83.729 16.0703 82.3626 16.9641 82.3626 16.9641L82.1907 24.2344L80.111 24.982L79.7759 23.3148Z" fill="#2385F8"/>
<path d="M94.3252 30.757V16.5C94.3252 15.7523 95.1932 15.3484 95.8291 15.5203C96.465 15.6922 97.6768 16.4398 99.808 17.3078C101.673 18.0641 105.05 18.9492 105.007 19.5594C104.938 20.4273 102.206 21.5445 100.616 22.5672C99.0002 23.607 96.5768 24.7586 96.5768 24.7586V33.7648L94.3252 30.757Z" fill="#4BC5FC"/>
<path d="M31.006 22.55V7.12422C31.006 6.36797 29.992 6.33359 29.2013 6.47109C28.3505 6.62578 27.0701 7.62265 25.0591 8.06953C23.0482 8.5164 20.1865 8.7914 19.7568 9.53047C19.499 9.97734 21.063 11.9453 23.2716 13.0453C25.4802 14.1453 28.849 15.8125 28.849 15.8125V23.2977L31.006 22.55Z" fill="#2385F8"/>
<path d="M16.5428 28.4797C16.5428 28.4797 16.4912 15.7695 16.4912 15.5203C16.4912 15.2711 15.8897 14.8672 14.9873 15.2195C14.085 15.5719 5.72325 18.2445 5.59434 18.8375C5.36231 19.9375 10.0029 21.5789 11.1115 22.0773C12.2201 22.5758 14.3342 23.5555 14.3342 23.5555V30.6883L16.5428 28.4797Z" fill="#4BC5FC"/>
<path d="M4.46 46.2859C3.82407 40.5711 10.6475 17.8922 54.5788 18.3563C101.114 18.8547 105.248 43.2953 104.998 46.1484C104.826 48.1336 104.465 66.8766 104.465 66.8766C104.465 66.8766 54.9483 82.3883 54.9483 81.8899C54.9483 81.3914 10.278 67.2461 10.278 67.2461C10.278 67.2461 4.94125 50.6086 4.46 46.2859Z" fill="#EE3E23"/>
<path d="M53.8142 18.3562C53.8142 18.3562 54.3471 18.3391 55.0947 18.3562C55.8424 18.3734 56.4096 18.3906 56.4096 18.3906L56.4697 50.6773L53.8057 50.6172C53.7971 50.6258 53.9088 18.4508 53.8142 18.3562Z" fill="#AE111F"/>
<path d="M86.7454 24.3719L70.8384 52.6367L73.0298 53.4617L88.9196 25.4289L86.7454 24.3719Z" fill="#AE111F"/>
<path d="M105.11 46.5351L85.4648 60.9726L86.0578 63.1039L104.938 49.4312C104.93 49.4398 105.222 45.7703 105.11 46.5351Z" fill="#AE111F"/>
<path d="M22.292 23.9508L36.5748 53.5219L38.0615 51.511L24.4146 23.0399L22.292 23.9508Z" fill="#AE111F"/>
<path d="M4.73521 42.9516L25.2227 60.6203L24.0368 62.3391L4.43443 45.7703C4.43443 45.7703 4.42583 44.9453 4.49458 44.318C4.57193 43.682 4.73521 42.9516 4.73521 42.9516Z" fill="#AE111F"/>
<path d="M21.8023 67.3234C21.8023 67.3234 21.5531 64.7797 22.1375 62.5023C23.1344 58.5922 30.2843 47.3687 55.4812 47.7812C80.5062 48.1937 87.8281 58.5922 87.9054 63.9977C87.9914 69.4031 84.9922 69.3172 84.9922 69.3172L53.3156 77.3781L37.1594 72.2219L21.8023 67.3234Z" fill="#B7D016"/>
<path d="M73.8032 58.4203C73.8032 57.707 73.2274 57.1398 72.5142 57.1398H37.1767C36.4634 57.1398 35.8876 57.7156 35.8876 58.4289L35.8618 72.2305L38.4399 72.239L38.4657 59.7266H53.7798V73.9062H55.4985V59.7266H71.2337L71.311 72.0844L73.8892 72.0672L73.8032 58.4203Z" fill="white"/>
<path d="M4.62341 43.3727C4.62341 43.3727 3.79841 45.1602 3.84998 49.0273C3.87576 50.6 3.84998 77.1547 3.84998 77.1547L11.5586 88.9195L25.0422 98.3898L46.2258 104.809H62.9062L77.9883 102.566L94.9953 91.8156L105.583 78.9766C105.583 78.9766 105.557 48.0477 105.523 47.575C105.248 43.8023 104.5 42.7969 104.5 42.7969C104.5 42.7969 108.307 55.4469 88.1718 65.6648C80.532 69.5406 68.475 72.643 54.5961 72.4883C34.1086 72.2648 21.8109 65.9055 15.9844 61.1875C3.53201 51.0984 4.62341 43.3727 4.62341 43.3727Z" fill="#B0B0B0"/>
<path d="M3.90176 80.532C3.90176 80.532 8.38769 91.0852 22.4729 99.0344C30.1385 103.357 40.7518 107.155 54.7682 107.508C67.4268 107.826 79.8361 104.148 87.3643 99.5672C101.278 91.0938 105.841 80.1195 105.841 80.1195L105.798 74.7656C105.798 74.7656 94.8322 102.816 55.1721 103.151C41.8861 103.262 30.74 99.6359 22.6189 94.5828C9.77129 86.582 3.83301 75.7023 3.83301 75.7023L3.90176 80.532Z" fill="#858585"/>
<path d="M3.99609 55.3008C3.99609 55.3008 12.9766 77.8594 54.725 78.1344C94.4109 78.3922 105.626 57.0883 105.626 57.0883L105.557 52.4648C105.557 52.4648 95.5281 75.9773 54.8195 75.6422C12.1 75.2984 3.86719 50.3508 3.86719 50.3508L3.99609 55.3008Z" fill="#858585"/>
<path d="M25.1025 100.487C24.8275 100.057 25.3087 79.7156 25.3087 78.8133C25.3087 77.5328 26.3657 75.1953 29.597 76.2523C32.622 77.2406 33.2923 80.1367 33.2923 81.8039C33.2923 83.4711 33.447 101.999 33.447 102.455C33.447 102.91 33.5759 103.959 32.7681 103.744C32.4071 103.641 30.104 102.996 28.6001 102.334C27.629 101.888 25.3775 100.908 25.1025 100.487Z" fill="#2F2F2F"/>
<path d="M9.04083 88.275C8.92911 87.8281 8.96348 71.4398 8.96348 70.3742C8.96348 68.2601 10.8025 66.6445 12.9768 67.925C15.151 69.2055 16.2596 71.543 16.3197 74.6625C16.3713 77.782 16.3971 93.7836 16.4486 94.2305C16.5002 94.6773 16.2338 94.9867 15.7268 94.6172C15.5807 94.5141 12.7705 92.443 11.6018 91.2742C10.433 90.1141 9.04083 88.275 9.04083 88.275Z" fill="#2F2F2F"/>
<path d="M76.3897 104.405C75.8397 104.01 76.0545 84.382 76.0545 83.0414C76.0545 81.7008 76.4498 77.4555 80.4029 76.7508C84.7514 75.9687 84.3045 80.5406 84.3561 82.0445C84.4076 83.3851 84.6225 100.684 84.485 101.123C84.4162 101.346 82.4483 102.248 80.5061 103.065C78.8905 103.735 76.51 104.483 76.3897 104.405Z" fill="#2F2F2F"/>
<path d="M93.2595 95.4422C92.8727 95.3734 93.1993 76.6562 93.2767 74.7141C93.3626 72.7117 94.2649 69.1453 97.1009 68.1055C99.8337 67.1 100.676 68.7242 100.676 71.3453C100.676 72.9609 100.495 88.1289 100.444 88.5156C100.409 88.7562 99.2493 90.0023 97.6852 91.6094C96.0352 93.3109 93.4485 95.4766 93.2595 95.4422Z" fill="#2F2F2F"/>
<path d="M11.6361 40.5711C11.576 41.1812 14.5924 43.8023 14.9619 43.768C15.3315 43.7336 17.54 41.3703 17.54 40.8805C17.54 40.3906 14.515 37.718 14.3174 37.7523C13.8533 37.8383 11.6705 40.1586 11.6361 40.5711Z" fill="#FF7879"/>
<path d="M25.343 45.0742C25.3687 45.5383 27.3023 49.1219 28.0242 49.0961C28.9266 49.0617 31.3242 47.1883 31.2726 46.75C31.2211 46.3117 29.1844 42.9859 28.5656 42.9086C27.9555 42.8398 25.3172 44.5672 25.343 45.0742Z" fill="#FF7879"/>
<path d="M15.9842 30.9203C16.0014 31.2469 18.1413 34.375 18.528 34.3406C18.9147 34.3062 21.3038 32.6305 21.3553 32.1836C21.4069 31.6766 19.4046 28.8062 18.9147 28.6945C18.4249 28.5828 15.9499 30.293 15.9842 30.9203Z" fill="#FF7879"/>
<path d="M32.261 33.1805C32.2352 33.4297 33.9712 37.6063 34.4954 37.5719C35.2259 37.5203 37.7266 36.6437 37.7954 36.1969C37.8642 35.7414 36.1712 31.582 35.8618 31.5477C35.5524 31.5133 32.2954 32.8367 32.261 33.1805Z" fill="#FF7879"/>
<path d="M38.5688 26.5977C38.4571 27.0617 39.3938 29.5367 39.6172 29.975C39.8922 30.5336 40.3821 30.9203 41.3274 30.6711C42.0407 30.482 43.6305 29.9062 43.6993 29.3133C43.768 28.7203 42.4102 25.4805 41.9891 25.2656C41.568 25.0508 38.7063 26.0391 38.5688 26.5977Z" fill="#FF7879"/>
<path d="M46.5178 29.5281C46.8358 29.7258 50.2733 29.4336 50.385 29.1758C50.66 28.5484 50.2819 24.7156 49.8952 24.432C49.5085 24.157 46.1913 24.4234 46.028 24.75C45.5381 25.7211 45.9592 29.1758 46.5178 29.5281Z" fill="#FF7879"/>
<path d="M42.1955 40.1242C41.7744 40.5195 43.1322 44.4297 43.665 44.6875C44.2838 44.9883 47.1541 43.9313 47.326 43.5703C47.5322 43.1063 46.1314 39.2906 45.7361 39.1703C44.9627 38.9469 42.7111 39.6516 42.1955 40.1242Z" fill="#FF7879"/>
<path d="M60.2508 27.6289C59.4687 28.2305 59.4687 32.3898 59.8555 33.0687C60.1734 33.6273 63.3875 33.7047 63.8601 33.2664C64.1266 33.0172 64.5391 28.3851 64.2555 27.9469C63.9805 27.5086 60.7664 27.225 60.2508 27.6289Z" fill="#FF7879"/>
<path d="M68.2602 23.418C67.7876 23.8906 67.229 28.4539 67.5469 28.8149C68.0282 29.3563 71.0016 29.6914 71.4743 29.4078C71.9469 29.1328 72.8665 24.6039 72.6259 23.9336C72.3938 23.2633 68.8016 22.8852 68.2602 23.418Z" fill="#FF7879"/>
<path d="M69.0163 40.6484C68.4233 40.8461 66.8593 45.5641 66.9538 45.968C67.1944 46.9992 70.3655 47.8328 71.0015 47.4719C71.371 47.2656 72.9866 42.6336 72.9093 42.2297C72.8233 41.843 69.6436 40.4422 69.0163 40.6484Z" fill="#FF7879"/>
<path d="M90.8015 32.7422C89.8905 32.8883 87.5874 36.6352 87.5874 37.2281C87.5874 37.8211 90.0452 39.4883 90.5265 39.4109C90.9991 39.3336 93.7835 35.0453 93.7835 34.7273C93.7835 34.4094 91.5577 32.6219 90.8015 32.7422Z" fill="#FF7879"/>
<path d="M90.8877 46.793C90.1744 46.793 86.7197 50.282 86.7197 50.7977C86.7197 51.3133 88.7049 53.2211 89.3752 53.2984C90.0455 53.3758 93.5775 49.7664 93.6205 49.1305C93.6635 48.5031 91.601 46.793 90.8877 46.793Z" fill="#FF7879"/>
<path d="M44.2148 106.605C43.8624 106.253 44.2578 92.2797 44.3179 89.9766C44.3867 87.1836 46.346 79.8531 54.9914 79.7156C63.6453 79.5781 66.1546 87.5359 66.1546 90.1141C66.1546 92.6922 66.3007 106.348 65.9828 106.769C65.8453 106.958 61.4796 107.714 54.7765 107.645C48.4171 107.577 44.5671 106.949 44.2148 106.605Z" fill="#2F2F2F"/>
</svg>
