<svg width="25" height="25" viewBox="0 0 25 25" fill="none" xmlns="http://www.w3.org/2000/svg">
<path d="M13.116 1.60862C14.3097 1.59474 15.4945 1.60745 16.6786 1.60194C16.7137 3.02442 17.3106 4.30643 18.2637 5.25758L18.2622 5.25617C19.2883 6.14941 20.6253 6.73054 22.1008 6.83307L22.1212 6.83454L22.1105 10.3614C20.7164 10.3235 19.4064 10.0107 18.226 9.47625L18.2858 9.50024C17.7149 9.23449 17.2323 8.96199 16.7739 8.65806L16.8117 8.68198C16.7952 11.2374 16.8049 13.793 16.7702 16.3393C16.6912 17.6367 16.2384 18.8189 15.515 19.8049L15.5297 19.7832C14.3201 21.4365 12.3656 22.5182 10.1466 22.5759L10.1364 22.5759C10.0467 22.5798 9.94097 22.5816 9.83451 22.5812C8.57309 22.5774 7.39509 22.2363 6.39211 21.647L6.42123 21.6632C4.59574 20.6009 3.33981 18.7888 3.11288 16.685L3.11005 16.6563C3.09315 16.2186 3.08573 15.7808 3.10526 15.3523C3.47271 12.0065 6.40008 9.42631 9.94883 9.43709C10.3477 9.4383 10.7384 9.47241 11.1181 9.53589L11.0773 9.53016C11.0916 10.8251 11.0329 12.1206 11.029 13.4154C10.7209 13.3074 10.3653 13.244 9.99414 13.2428C8.63209 13.2387 7.47094 14.0714 7.03866 15.2375L7.03203 15.2585C6.93415 15.5572 6.87696 15.9009 6.87588 16.2567C6.87544 16.4009 6.88448 16.5438 6.90156 16.684L6.90015 16.6671C7.13787 18.1007 8.41351 19.1859 9.95565 19.1906C10.0001 19.1907 10.0439 19.1902 10.0876 19.1882L10.0811 19.1882C11.1479 19.1606 12.0756 18.6123 12.6016 17.7994L12.6089 17.7868C12.8044 17.5269 12.9388 17.2121 12.9843 16.8698L12.9851 16.86C13.081 15.2937 13.0492 13.736 13.0628 12.1694C13.0822 8.64263 13.0754 5.12416 13.1131 1.60651L13.116 1.60862Z" fill="white"/>
</svg>
