<svg width="297" height="297" viewBox="0 0 297 297" fill="none" xmlns="http://www.w3.org/2000/svg">
<path d="M286.498 92.8171C290.285 87.3923 292.359 80.9418 292.359 74.25C292.359 56.3372 277.783 41.7656 259.875 41.7656C253.206 41.7656 246.747 43.8214 241.312 47.6267C235.878 43.8214 229.419 41.7656 222.75 41.7656C216.063 41.7656 209.608 43.84 204.183 47.6267C198.916 43.9421 192.526 41.7656 185.625 41.7656C178.956 41.7656 172.497 43.8261 167.062 47.6267C161.628 43.8261 155.169 41.7656 148.5 41.7656C141.599 41.7656 135.209 43.9421 129.942 47.6267C124.517 43.84 118.067 41.7656 111.375 41.7656C104.706 41.7656 98.2513 43.8214 92.8125 47.6221V20.5765L66.2542 4.64062H55.6875V47.6221C47.0374 53.6642 41.7656 63.6322 41.7656 74.25C41.7656 92.1628 56.3418 106.734 74.25 106.734C80.9186 106.734 87.3783 104.674 92.8125 100.873C98.2467 104.674 104.706 106.734 111.375 106.734C118.169 106.734 124.605 104.595 129.938 100.878C135.362 104.66 141.813 106.734 148.5 106.734C155.169 106.734 161.628 104.674 167.062 100.873C172.497 104.674 178.956 106.734 185.625 106.734C192.312 106.734 198.763 104.66 204.183 100.878C209.52 104.595 215.956 106.734 222.75 106.734C224.462 106.734 226.156 106.572 227.831 106.303C227.572 107.973 227.391 109.658 227.391 111.375C227.391 113.092 227.553 114.795 227.822 116.47C219.65 115.245 211.083 117.176 204.215 121.9C198.944 118.206 192.54 116.016 185.625 116.016C178.956 116.016 172.497 118.076 167.062 121.877C161.628 118.076 155.169 116.016 148.5 116.016C141.813 116.016 135.358 118.09 129.933 121.877C124.666 118.192 118.276 116.016 111.375 116.016C104.581 116.016 98.1446 118.155 92.8125 121.872C87.3876 118.09 80.9371 116.016 74.25 116.016C67.5814 116.016 61.1217 118.071 55.6875 121.877C50.2533 118.071 43.7936 116.016 37.125 116.016C19.2168 116.016 4.64062 130.587 4.64062 148.5C4.64062 155.401 6.77995 161.823 10.4646 167.114C6.70106 172.529 4.64062 178.961 4.64062 185.625C4.64062 192.312 6.71498 198.767 10.5017 204.192C6.82172 209.459 4.64062 215.849 4.64062 222.75C4.64062 240.658 19.2168 255.234 37.125 255.234C43.9282 255.234 50.3601 253.09 55.6875 249.378C61.1077 253.16 67.5582 255.234 74.25 255.234C80.9186 255.234 87.3783 253.179 92.8125 249.373C98.2467 253.179 104.706 255.234 111.375 255.234C118.178 255.234 124.61 253.09 129.942 249.378C135.362 253.16 141.818 255.234 148.5 255.234C155.192 255.234 161.647 253.155 167.076 249.364C172.422 253.09 178.868 255.234 185.625 255.234C192.294 255.234 198.753 253.179 204.188 249.373V276.423L230.746 292.359H241.312V249.378C249.963 243.336 255.234 233.372 255.234 222.75C255.234 204.842 240.658 190.266 222.75 190.266C216.081 190.266 209.622 192.321 204.188 196.127C198.753 192.321 192.294 190.266 185.625 190.266C178.938 190.266 172.483 192.345 167.058 196.127C161.791 192.447 155.401 190.266 148.5 190.266C141.813 190.266 135.362 192.34 129.938 196.122C124.517 192.34 118.062 190.266 111.375 190.266C104.706 190.266 98.2467 192.321 92.8125 196.127C87.3783 192.321 80.9186 190.266 74.25 190.266C72.5191 190.266 70.8299 190.442 69.1685 190.702C69.4284 189.036 69.6094 187.347 69.6094 185.625C69.6094 183.899 69.433 182.21 69.1685 180.539C70.8391 180.803 72.5283 180.984 74.25 180.984C81.1506 180.984 87.5408 178.803 92.8079 175.123C98.2281 178.905 104.683 180.984 111.375 180.984C118.062 180.984 124.508 178.91 129.933 175.128C135.274 178.85 141.725 180.984 148.5 180.984C155.169 180.984 161.628 178.929 167.062 175.123C172.497 178.929 178.956 180.984 185.625 180.984C192.312 180.984 198.763 178.91 204.188 175.128C209.52 178.845 215.956 180.984 222.75 180.984C229.651 180.984 236.041 178.803 241.308 175.123C246.733 178.91 253.183 180.984 259.875 180.984C277.783 180.984 292.359 166.408 292.359 148.5C292.359 141.831 290.304 135.367 286.498 129.938C290.304 124.508 292.359 118.044 292.359 111.375C292.359 104.474 290.183 98.0842 286.498 92.8171ZM277.133 133.037C280.967 137.307 283.078 142.801 283.078 148.5C283.078 161.294 272.669 171.703 259.875 171.703C255.754 171.703 251.768 170.58 248.26 168.543C252.612 163.016 255.234 156.064 255.234 148.5H245.953C245.953 161.294 235.544 171.703 222.75 171.703C212.935 171.703 204.136 165.489 200.865 156.241L192.117 159.331C193.315 162.719 195.064 165.791 197.203 168.515C188.79 173.221 177.522 172.362 170.162 165.754L167.062 162.974L163.963 165.758C159.689 169.592 154.199 171.703 148.5 171.703C138.796 171.703 130.035 165.587 126.708 156.482L117.988 159.675C119.176 162.923 120.87 165.893 122.944 168.524C115.881 172.46 106.846 172.46 99.7874 168.51C104.122 162.988 106.734 156.05 106.734 148.5H97.4531C97.4531 161.294 87.0442 171.703 74.25 171.703C71.2429 171.703 68.3564 171.104 65.6184 169.991C63.0011 165.22 59.1773 161.113 54.3788 158.097L49.4412 165.953C56.2583 170.237 60.3281 177.592 60.3281 185.625C60.3281 188.637 59.7341 191.542 58.6204 194.289C48.5873 199.821 41.7656 210.503 41.7656 222.75H51.0469C51.0469 209.956 61.4558 199.547 74.25 199.547C79.9487 199.547 85.4386 201.658 89.7126 205.492L92.8125 208.276L95.9124 205.492C103.282 198.888 114.549 198.029 122.963 202.74C118.522 208.415 116.016 215.446 116.016 222.75H125.297C125.297 216.165 128.109 209.868 133.019 205.464C137.274 201.649 142.773 199.547 148.5 199.547C161.294 199.547 171.703 209.956 171.703 222.75H180.984C180.984 215.2 178.372 208.262 174.037 202.74C182.455 198.034 193.723 198.888 201.088 205.492L204.188 208.276L207.287 205.492C211.561 201.658 217.051 199.547 222.75 199.547C235.544 199.547 245.953 209.956 245.953 222.75C245.953 230.987 241.507 238.681 234.347 242.821L232.031 244.162V282.308L213.469 271.17V244.166L211.153 242.825C209.784 242.032 208.485 241.085 207.287 240.013L204.188 237.224L201.088 240.008C196.814 243.842 191.324 245.953 185.625 245.953C176.037 245.953 167.318 239.934 163.921 230.969L155.238 234.259C156.417 237.373 158.06 240.227 160.064 242.765C153.001 246.7 143.975 246.7 136.922 242.756C139.093 239.99 140.866 236.867 142.063 233.423L133.297 230.379C130.054 239.693 121.246 245.953 111.375 245.953C105.676 245.953 100.186 243.842 95.9124 240.008L92.8125 237.224L89.7126 240.008C82.3479 246.617 71.0805 247.475 62.667 242.765C64.8388 240.004 66.6069 236.885 67.8042 233.442L59.038 230.388C55.7942 239.698 46.991 245.953 37.125 245.953C24.3308 245.953 13.9219 235.544 13.9219 222.75C13.9219 209.956 24.3308 199.547 37.125 199.547V190.266C29.5608 190.266 22.6091 192.888 17.0821 197.24C15.0495 193.732 13.9219 189.746 13.9219 185.625C13.9219 181.527 15.0403 177.56 17.0543 174.065C21.2448 177.351 26.2845 179.653 31.8811 180.567L33.3661 171.401C22.1033 169.568 13.9219 159.939 13.9219 148.5C13.9219 135.706 24.3308 125.297 37.125 125.297C42.819 125.297 48.3089 127.408 52.5922 131.242L55.6875 134.017L58.7828 131.242C66.1614 124.633 77.4195 123.779 85.8284 128.485C83.689 131.209 81.9395 134.281 80.7422 137.664L89.4898 140.759C92.7615 131.511 101.56 125.297 111.375 125.297C124.169 125.297 134.578 135.706 134.578 148.5H143.859C143.859 140.95 141.247 134.012 136.912 128.494C145.326 123.784 156.589 124.633 163.967 131.246L167.062 134.017L170.158 131.242C174.441 127.408 179.931 125.297 185.625 125.297C198.419 125.297 208.828 135.706 208.828 148.5H218.109C218.109 140.95 215.497 134.012 211.162 128.49C217.311 124.995 224.936 124.415 231.498 127.07C232.676 129.186 234.064 131.2 235.711 133.033L242.617 126.833C238.783 122.568 236.672 117.074 236.672 111.375C236.672 108.34 237.28 105.421 238.403 102.651C240.533 101.472 242.561 100.075 244.408 98.4184L238.217 91.5085C233.934 95.3416 228.444 97.4531 222.75 97.4531C212.935 97.4531 204.136 91.2393 200.865 81.9906L192.117 85.0859C193.315 88.4689 195.059 91.541 197.199 94.265C188.781 98.9706 177.532 98.1167 170.153 91.5085L167.062 88.7334L163.967 91.5085C156.593 98.1121 145.344 98.9706 136.922 94.265C139.061 91.5456 140.806 88.4735 142.003 85.0951L133.256 81.9952C129.984 91.2393 121.185 97.4531 111.375 97.4531C105.681 97.4531 100.191 95.3416 95.9078 91.5085L92.8125 88.7334L89.7172 91.5085C85.4339 95.3416 79.944 97.4531 74.25 97.4531C61.4558 97.4531 51.0469 87.0442 51.0469 74.25C51.0469 66.0175 55.4926 58.3234 62.6531 54.1747L64.9688 52.8335V14.6922L83.5312 25.8297V52.8335L85.8469 54.1747C87.2113 54.9636 88.5106 55.9103 89.7126 56.9915L92.8125 59.7666L95.9078 56.9915C103.291 50.3833 114.549 49.5294 122.963 54.2396C118.628 59.762 116.016 66.6997 116.016 74.25H125.297C125.297 61.4558 135.706 51.0469 148.5 51.0469C154.194 51.0469 159.684 53.1584 163.967 56.9915L167.062 59.7666L170.158 56.9915C174.441 53.1584 179.931 51.0469 185.625 51.0469C198.419 51.0469 208.828 61.4558 208.828 74.25H218.109C218.109 66.6997 215.497 59.762 211.162 54.2443C219.585 49.534 230.834 50.3879 238.217 56.9962L241.312 59.7666L244.408 56.9915C248.691 53.1584 254.181 51.0469 259.875 51.0469C272.669 51.0469 283.078 61.4558 283.078 74.25C283.078 78.3709 281.955 82.3572 279.918 85.8655C274.391 81.5126 267.439 78.8906 259.875 78.8906V88.1719C272.669 88.1719 283.078 98.5808 283.078 111.375C283.078 117.074 280.967 122.568 277.133 126.838L274.349 129.938L277.133 133.037Z" fill="#B5904A"/>
</svg>
