<svg width="25" height="25" viewBox="0 0 25 25" fill="none" xmlns="http://www.w3.org/2000/svg">
<path d="M10.0944 15.6703L15.2935 12.686L10.1126 9.67029L10.0944 15.6703ZM21.6781 7.87542C21.8067 8.34582 21.8948 8.97609 21.9524 9.77627C22.0199 10.5765 22.0478 11.2666 22.046 11.8666L22.1035 12.7067C22.0968 14.8967 21.9319 16.5062 21.6488 17.5354C21.396 18.4346 20.8143 19.0129 19.9135 19.2601C19.4431 19.3887 18.5829 19.4761 17.2627 19.5321C15.9625 19.5981 14.7724 19.6245 13.6724 19.6212L12.0822 19.6763C7.89225 19.6636 5.28275 19.4957 4.2536 19.2125C3.35437 18.9598 2.77613 18.378 2.52887 17.4773C2.4003 17.0069 2.31221 16.3766 2.25464 15.5764C2.18707 14.7762 2.15917 14.0861 2.16099 13.4861L2.10355 12.646C2.1102 10.456 2.27509 8.84647 2.55822 7.81732C2.81095 6.91809 3.39271 6.33985 4.29347 6.09259C4.76386 5.96402 5.62413 5.87663 6.94431 5.82064C8.24452 5.75459 9.4346 5.72821 10.5346 5.73155L12.1248 5.67638C16.3148 5.68912 18.9243 5.85705 19.9534 6.14018C20.8526 6.39291 21.4309 6.97467 21.6781 7.87542Z" fill="white"/>
</svg>
